<?xml version="1.0" encoding="UTF-8" standalone="no"?>
<!-- Created with Inkscape (http://www.inkscape.org/) -->

<svg
   width="3.7909677in"
   height="2.2697999in"
   viewBox="0 0 3.7909677 2.2697999"
   id="SVGRoot"
   version="1.1"
   inkscape:version="1.4.4 (dcaf3e7, 2026-05-05)"
   sodipodi:docname="business card.svg"
   inkscape:export-filename="business card.pdf"
   inkscape:export-xdpi="96"
   inkscape:export-ydpi="96"
   xmlns:inkscape="http://www.inkscape.org/namespaces/inkscape"
   xmlns:sodipodi="http://sodipodi.sourceforge.net/DTD/sodipodi-0.dtd"
   xmlns="http://www.w3.org/2000/svg"
   xmlns:svg="http://www.w3.org/2000/svg">
  <sodipodi:namedview
     inkscape:document-units="in"
     inkscape:zoom="1.9214965"
     inkscape:cx="30.44502"
     inkscape:cy="77.543727"
     id="namedview1"
     pagecolor="#ffffff"
     bordercolor="#000000"
     borderopacity="0.25"
     inkscape:showpageshadow="2"
     inkscape:pageopacity="0.0"
     inkscape:pagecheckerboard="0"
     inkscape:deskcolor="#d1d1d1"
     inkscape:lockguides="false"
     inkscape:window-width="1172"
     inkscape:window-height="733"
     inkscape:window-x="132"
     inkscape:window-y="127"
     inkscape:window-maximized="0"
     inkscape:current-layer="g17"
     showguides="true">
    <inkscape:page
       x="0"
       y="0"
       width="3.7909677"
       height="2.2697999"
       id="page2"
       margin="0"
       bleed="0" />
  </sodipodi:namedview>
  <defs
     id="defs1" />
  <g
     inkscape:label="Layer 1"
     inkscape:groupmode="layer"
     id="layer1"
     sodipodi:insensitive="true"
     transform="translate(0.01084227,9.3015079e-4)">
    <path
       id="rect1"
       style="stroke-width:0.00907505"
       d="M -2.7123958e-8,0.01533321 H 3.503648 V 2.0086561 H -2.7123958e-8 Z" />
  </g>
  <g
     inkscape:label="crimson rectangle"
     inkscape:groupmode="layer"
     id="g2"
     sodipodi:insensitive="true"
     transform="translate(0.01084227,9.3015079e-4)">
    <path
       id="rect2"
       style="fill:#0b0000;fill-opacity:0.996139;stroke-width:0.00907505"
       d="M -2.7123958e-8,0.01533321 H 3.503648 V 2.0086561 H -2.7123958e-8 Z" />
    <path
       id="rect3"
       style="fill:#7f0019;fill-opacity:0.996139;stroke-width:0.0100732"
       d="M -0.01084227,-9.3015085e-4 H 3.7801252 V 2.2688698 h -3.79096747 z" />
  </g>
  <g
     inkscape:groupmode="layer"
     id="layer2"
     inkscape:label="ike bell"
     sodipodi:insensitive="true"
     transform="translate(0.01084227,9.3015079e-4)">
    <path
       style="font-weight:900;font-stretch:condensed;font-size:1.55615px;font-family:'Druk Cond Trial';-inkscape-font-specification:'Druk Cond Trial Heavy Condensed';letter-spacing:-0.0078125px;word-spacing:0.07875px;stroke-width:0.0243145"
       d="M 0.47858074,0.2149191 H 0.2809497 V 1.3726947 H 0.47858074 Z M 0.69485455,1.3726947 0.6932984,0.91674273 0.75398825,1.3726947 H 0.95940004 L 0.85980645,0.73934164 0.95473159,0.2149191 H 0.7586567 L 0.6932984,0.63196729 0.69485455,0.2149191 H 0.49877966 V 1.3726947 Z M 0.96092449,0.2149191 V 1.3726947 H 1.298609 V 1.1921813 H 1.1538871 V 0.85760903 H 1.2721545 V 0.67398334 H 1.1538871 V 0.3923202 H 1.2939406 V 0.2149191 Z M 1.5080105,1.3726947 h 0.2972246 c 0.096481,0 0.1478343,-0.06069 0.1478343,-0.175845 V 0.87939513 c 0,-0.093369 -0.059134,-0.12604814 -0.091813,-0.13538504 0.024898,-0.007781 0.076251,-0.0435722 0.076251,-0.1213797 V 0.3611972 c 0,-0.10426205 -0.051353,-0.1462781 -0.1307166,-0.1462781 H 1.5080105 Z M 1.7196469,0.3611972 c 0.02023,0 0.023342,0.007781 0.023342,0.0280107 v 0.27232624 c 0,0.02023 -0.00622,0.0295669 -0.023342,0.0295669 H 1.7056415 V 0.3611972 Z m 0.00467,0.47306959 c 0.018674,0 0.023342,0.009337 0.023342,0.031123 V 1.1921813 c 0,0.02023 -0.00311,0.029567 -0.023342,0.029567 H 1.7056415 V 0.83426679 Z M 1.9701553,0.2149191 V 1.3726947 H 2.3078399 V 1.1921813 H 2.1631179 V 0.85760903 H 2.2813853 V 0.67398334 H 2.1631179 V 0.3923202 H 2.3031714 V 0.2149191 Z m 0.3547702,0 v 1.1577756 h 0.3205669 l 0.00156,-0.1836257 h -0.124492 l -0.00156,-0.9741499 z m 0.337653,0 v 1.1577756 h 0.3205668 l 0.00156,-0.1836257 h -0.124492 l -0.00156,-0.9741499 z"
       id="text1"
       transform="scale(1.1128842,0.8985661)"
       aria-label="IKE BELL" />
  </g>
  <g
     inkscape:groupmode="layer"
     id="g3"
     inkscape:label="subtext left"
     sodipodi:insensitive="true"
     transform="translate(0.01084227,9.3015079e-4)">
    <path
       d="m 0.26608853,1.6970133 q -0.007986,0 -0.0125694,-0.00507 -0.004514,-0.00514 -0.004514,-0.014792 v -0.010833 q 0,-0.00938 0.004514,-0.014583 0.004583,-0.00528 0.0125694,-0.00528 0.005556,0 0.009375,0.00236 0.003819,0.00236 0.005764,0.00639 0.001944,0.00396 0.001944,0.00889 V 1.66493 h -0.005833 v -8.333e-4 q -6.944e-5,-0.00319 -0.00125,-0.00597 -0.001111,-0.00278 -0.003611,-0.00451 -0.002431,-0.00174 -0.006389,-0.00174 -0.005625,0 -0.008472,0.0041 -0.002778,0.0041 -0.002778,0.010764 v 0.01 q 0,0.00708 0.002778,0.010972 0.002847,0.00389 0.008472,0.00389 0.003958,0 0.006458,-0.00174 0.0025,-0.00174 0.003611,-0.00451 0.001181,-0.00278 0.001181,-0.00597 v -8.334e-4 h 0.005833 v 8.334e-4 q 0,0.00493 -0.001944,0.00896 -0.001944,0.00396 -0.005764,0.00632 -0.003819,0.00236 -0.009375,0.00236 z m 0.02125,-9.722e-4 V 1.64743 h 0.005833 v 0.021528 h 0.0206944 V 1.64743 h 0.005833 v 0.048611 h -0.005833 V 1.674374 h -0.0206944 v 0.021667 z m 0.0384722,0 v -0.00542 h 0.0125 v -0.037778 h -0.0125 V 1.64743 h 0.0308333 v 0.00542 h -0.0125 v 0.037778 h 0.0125 v 0.00542 z m 0.0384027,0 V 1.64743 h 0.0294444 v 0.00542 h -0.0236111 v 0.016111 h 0.0231944 v 0.00542 h -0.0231944 v 0.01625 h 0.0240278 v 0.00542 z m 0.0377777,0 V 1.64743 h 0.0298611 V 1.65285 H 0.4078244 v 0.016111 h 0.0236111 v 0.00542 H 0.4078244 v 0.021667 z m 0.0871526,0 V 1.6528467 H 0.47497705 V 1.64743 h 0.0341666 v 0.00542 h -0.0141667 v 0.043194 z m 0.0259027,0 V 1.64743 h 0.0294444 v 0.00542 h -0.0236111 v 0.016111 h 0.0231944 v 0.00542 h -0.0231944 v 0.01625 h 0.0240278 v 0.00542 z m 0.0527083,9.722e-4 q -0.007986,0 -0.0125694,-0.00507 -0.004514,-0.00514 -0.004514,-0.014792 v -0.010833 q 0,-0.00938 0.004514,-0.014583 0.004583,-0.00528 0.0125694,-0.00528 0.005556,0 0.009375,0.00236 0.003819,0.00236 0.005764,0.00639 0.001944,0.00396 0.001944,0.00889 V 1.66493 h -0.005833 v -8.333e-4 q -6.944e-5,-0.00319 -0.00125,-0.00597 -0.001111,-0.00278 -0.003611,-0.00451 -0.002431,-0.00174 -0.006389,-0.00174 -0.005625,0 -0.008472,0.0041 -0.002778,0.0041 -0.002778,0.010764 v 0.01 q 0,0.00708 0.002778,0.010972 0.002847,0.00389 0.008472,0.00389 0.003958,0 0.006458,-0.00174 0.0025,-0.00174 0.003611,-0.00451 0.001181,-0.00278 0.001181,-0.00597 v -8.334e-4 h 0.005833 v 8.334e-4 q 0,0.00493 -0.001944,0.00896 -0.001944,0.00396 -0.005764,0.00632 -0.003819,0.00236 -0.009375,0.00236 z m 0.0212499,-9.722e-4 V 1.64743 h 0.005833 v 0.021528 h 0.0206944 V 1.64743 h 0.005833 v 0.048611 h -0.005833 V 1.674374 h -0.0206944 v 0.021667 z m 0.0377083,0 V 1.64743 h 0.0116667 l 0.0140278,0.046111 h 8.3333e-4 V 1.64743 h 0.005833 V 1.696041 H 0.64740734 L 0.63337957,1.64993 h -8.3333e-4 v 0.046111 z m 0.0538888,9.722e-4 q -0.007986,0 -0.0125694,-0.00507 -0.004514,-0.00514 -0.004514,-0.014792 v -0.010833 q 0,-0.00938 0.004514,-0.014583 0.004583,-0.00528 0.0125694,-0.00528 0.008056,0 0.0125694,0.00528 0.004514,0.00521 0.004514,0.014583 v 0.010833 q 0,0.00965 -0.004514,0.014792 -0.004514,0.00507 -0.0125694,0.00507 z m 0,-0.00542 q 0.005625,0 0.008403,-0.00389 0.002847,-0.00389 0.002847,-0.010972 v -0.01 q 0,-0.00667 -0.002847,-0.010764 -0.002778,-0.0041 -0.008403,-0.0041 -0.005625,0 -0.008472,0.0041 -0.002778,0.0041 -0.002778,0.010764 v 0.01 q 0,0.00708 0.002778,0.010972 0.002847,0.00389 0.008472,0.00389 z m 0.0224999,0.00444 V 1.64743 h 0.005833 v 0.043194 h 0.0254167 v 0.00542 z m 0.0529166,9.722e-4 q -0.007986,0 -0.0125694,-0.00507 -0.004514,-0.00514 -0.004514,-0.014792 v -0.010833 q 0,-0.00938 0.004514,-0.014583 0.004583,-0.00528 0.0125694,-0.00528 0.008056,0 0.0125694,0.00528 0.004514,0.00521 0.004514,0.014583 v 0.010833 q 0,0.00965 -0.004514,0.014792 -0.004514,0.00507 -0.0125694,0.00507 z m 0,-0.00542 q 0.005625,0 0.008403,-0.00389 0.002847,-0.00389 0.002847,-0.010972 v -0.01 q 0,-0.00667 -0.002847,-0.010764 -0.002778,-0.0041 -0.008403,-0.0041 -0.005625,0 -0.008472,0.0041 -0.002778,0.0041 -0.002778,0.010764 v 0.01 q 0,0.00708 0.002778,0.010972 0.002847,0.00389 0.008472,0.00389 z m 0.037361,0.00542 q -0.007778,0 -0.0122917,-0.00507 -0.004514,-0.00514 -0.004514,-0.014792 v -0.010833 q 0,-0.00938 0.004514,-0.014583 0.004583,-0.00528 0.0125694,-0.00528 0.005556,0 0.009375,0.00236 0.003819,0.00236 0.005764,0.00639 0.001944,0.00396 0.001944,0.00889 V 1.66493 h -0.005833 v -8.333e-4 q 0,-0.00319 -0.001181,-0.00597 -0.001111,-0.00278 -0.003611,-0.00451 -0.0025,-0.00174 -0.006458,-0.00174 -0.005625,0 -0.008472,0.0041 -0.002778,0.0041 -0.002778,0.010764 v 0.01 q 0,0.00708 0.002847,0.010972 0.002847,0.00389 0.008542,0.00389 0.005139,0 0.008125,-0.00333 0.002986,-0.0034 0.002986,-0.00931 v -8.333e-4 h -0.0158333 v -0.00542 h 0.0216667 v 0.023333 h -0.005417 v -0.00583 H 0.80449 q -0.001111,0.00299 -0.004167,0.00493 -0.002986,0.00188 -0.006944,0.00188 z m 0.0351388,-9.722e-4 v -0.017083 h -0.00125 L 0.81205982,1.64743 h 0.006528 l 0.0124305,0.026528 h 8.3334e-4 L 0.84428202,1.64743 h 0.006528 l -0.0152083,0.031528 h -0.00125 v 0.017083 z m 0.0783332,9.722e-4 q -0.007986,0 -0.0125694,-0.00507 -0.004514,-0.00514 -0.004514,-0.014792 v -0.010833 q 0,-0.00938 0.004514,-0.014583 0.004583,-0.00528 0.0125694,-0.00528 0.008056,0 0.0125694,0.00528 0.004514,0.00521 0.004514,0.014583 v 0.010833 q 0,0.00965 -0.004514,0.014792 -0.004514,0.00507 -0.0125694,0.00507 z m 0,-0.00542 q 0.005625,0 0.008403,-0.00389 0.002847,-0.00389 0.002847,-0.010972 v -0.01 q 0,-0.00667 -0.002847,-0.010764 -0.002778,-0.0041 -0.008403,-0.0041 -0.005625,0 -0.008472,0.0041 -0.002778,0.0041 -0.002778,0.010764 v 0.01 q 0,0.00708 0.002778,0.010972 0.002847,0.00389 0.008472,0.00389 z m 0.0230555,0.00444 V 1.64743 h 0.0298611 v 0.00542 h -0.0240278 v 0.016111 h 0.0236111 v 0.00542 h -0.0236111 v 0.021667 z m 0.0377083,0 V 1.64743 h 0.0298611 v 0.00542 h -0.0240278 v 0.016111 h 0.0236111 v 0.00542 h -0.0236111 v 0.021667 z m 0.0369444,0 v -0.00542 h 0.0125 v -0.037778 h -0.0125 v -0.0054 h 0.030833 v 0.00542 h -0.0125 v 0.037778 h 0.0125 v 0.00542 z m 0.053403,9.722e-4 q -0.00799,0 -0.012569,-0.00507 -0.00451,-0.00514 -0.00451,-0.014792 v -0.010833 q 0,-0.00938 0.00451,-0.014583 0.00458,-0.00528 0.012569,-0.00528 0.00556,0 0.00938,0.00236 0.00382,0.00236 0.00576,0.00639 0.00194,0.00396 0.00194,0.00889 V 1.66493 h -0.00583 v -8.333e-4 q -6.94e-5,-0.00319 -0.00125,-0.00597 -0.00111,-0.00278 -0.00361,-0.00451 -0.00243,-0.00174 -0.00639,-0.00174 -0.00562,0 -0.00847,0.0041 -0.00278,0.0041 -0.00278,0.010764 v 0.01 q 0,0.00708 0.00278,0.010972 0.00285,0.00389 0.00847,0.00389 0.00396,0 0.00646,-0.00174 0.0025,-0.00174 0.00361,-0.00451 0.00118,-0.00278 0.00118,-0.00597 v -8.334e-4 h 0.00583 v 8.334e-4 q 0,0.00493 -0.00194,0.00896 -0.00194,0.00396 -0.00576,0.00632 -0.00382,0.00236 -0.00938,0.00236 z m 0.022708,-9.722e-4 V 1.64743 h 0.029444 v 0.00542 h -0.023611 v 0.016111 h 0.023195 v 0.00542 h -0.023195 v 0.01625 h 0.024028 v 0.00542 z m 0.037083,0 V 1.64743 h 0.017361 q 0.005,0 0.00826,0.00188 0.00333,0.00181 0.00493,0.00479 0.00167,0.00299 0.00167,0.00653 v 0.00208 q 0,0.00271 -0.00153,0.00542 -0.00146,0.00271 -0.00458,0.00417 v 8.334e-4 q 0.00208,2.777e-4 0.00326,0.00167 0.00118,0.00132 0.00118,0.00375 v 0.0175 h -0.00583 v -0.01625 q 0,-0.00181 -8.333e-4,-0.00278 -8.334e-4,-9.722e-4 -0.00292,-9.722e-4 h -0.015139 v 0.02 z m 0.00583,-0.025417 h 0.010833 q 0.00972,0 0.00972,-0.00833 v -0.00125 q 0,-0.00368 -0.00243,-0.0059 -0.00236,-0.00229 -0.00729,-0.00229 h -0.010833 z"
       id="text2"
       style="font-size:0.0694444px;font-family:'Space Mono';-inkscape-font-specification:'Space Mono';letter-spacing:-0.00479167px;word-spacing:0px;stroke-width:0.012924"
       inkscape:label="gridlab"
       transform="scale(1.240709,0.80599077)"
       aria-label="CHIEF TECHNOLOGY OFFICER&#10;" />
    <path
       d="M 0.24560238,1.7735851 0.2603246,1.724974 H 0.2712968 L 0.286019,1.773585 H 0.279769 L 0.276227,1.761502 H 0.2553937 l -0.003542,0.012083 z m 0.0113889,-0.0175 h 0.0176389 l -0.008403,-0.028611 h -8.3333e-4 z m 0.0311111,0.0175 v -0.00542 h 0.0125 v -0.037778 h -0.0125 v -0.00542 h 0.0308333 v 0.00542 h -0.0125 v 0.037778 h 0.0125 v 0.00542 z m 0.0875693,0 q -0.006944,0 -0.0106944,-0.00361 -0.003681,-0.00361 -0.003681,-0.0091 v -8.334e-4 q 0,-0.00389 0.002361,-0.00667 0.002431,-0.00285 0.005833,-0.00375 v -8.334e-4 q -0.003403,-9.722e-4 -0.005833,-0.00368 -0.002361,-0.00271 -0.002361,-0.00667 V 1.737605 q 0,-0.00542 0.003681,-0.00903 0.00375,-0.00361 0.0106944,-0.00361 h 0.008889 v 0.00542 h -0.008472 q -0.004028,0 -0.006667,0.00208 -0.002569,0.00201 -0.002569,0.00556 v 4.167e-4 q 0,0.00375 0.002431,0.0059 0.002431,0.00215 0.006597,0.00215 h 0.009514 v -0.00736 h 0.005833 v 0.00736 h 0.006736 v 0.00542 h -0.006736 v 0.021667 z m 4.1667e-4,-0.00542 h 0.009306 v -0.01625 h -0.009514 q -0.004167,0 -0.006597,0.00222 -0.002431,0.00222 -0.002431,0.0059 v 4.167e-4 q 0,0.00361 0.002569,0.00569 0.002639,0.00201 0.006667,0.00201 z m 0.079236,0.00639 q -0.00625,0 -0.0104861,-0.00229 -0.004236,-0.00236 -0.006458,-0.00639 -0.002153,-0.00403 -0.002153,-0.0091 v -0.00208 h 0.005833 v 0.00167 q 0,0.00632 0.003542,0.00958 0.003542,0.00319 0.009722,0.00319 0.005417,0 0.008125,-0.00243 0.002778,-0.00243 0.002778,-0.00632 V 1.759974 q 0,-0.00382 -0.002847,-0.00583 -0.002778,-0.00201 -0.009097,-0.00292 -0.007292,-0.00104 -0.0116667,-0.0041 -0.004306,-0.00313 -0.004306,-0.00937 v -8.334e-4 q 0,-0.00382 0.002014,-0.00667 0.002083,-0.00292 0.005694,-0.00458 0.003611,-0.00167 0.008333,-0.00167 0.005486,0 0.009306,0.00201 0.003889,0.00201 0.005903,0.00535 0.002083,0.00326 0.002083,0.00722 v 0.00292 h -0.005833 v -0.0025 q 0,-0.00319 -0.001597,-0.00528 -0.001597,-0.00215 -0.004236,-0.00319 -0.002639,-0.00111 -0.005694,-0.00111 -0.002639,0 -0.005,9.028e-4 -0.002292,9.028e-4 -0.00375,0.00264 -0.001389,0.00167 -0.001389,0.00417 V 1.73755 q 0,0.00403 0.003264,0.0059 0.003264,0.00181 0.009792,0.00278 0.007639,0.00111 0.01125,0.00444 0.003611,0.00333 0.003611,0.00889 v 8.333e-4 q 0,0.00632 -0.004306,0.010278 -0.004236,0.00389 -0.0124305,0.00389 z m 0.036736,0 q -0.007986,0 -0.0125694,-0.00507 -0.004514,-0.00514 -0.004514,-0.014792 v -0.010833 q 0,-0.00938 0.004514,-0.014583 0.004583,-0.00528 0.0125694,-0.00528 0.008056,0 0.0125694,0.00528 0.004514,0.00521 0.004514,0.014583 v 0.010833 q 0,0.00965 -0.004514,0.014792 -0.004514,0.00507 -0.0125694,0.00507 z m 0,-0.00542 q 0.005625,0 0.008403,-0.00389 0.002847,-0.00389 0.002847,-0.010972 v -0.01 q 0,-0.00667 -0.002847,-0.010764 -0.002778,-0.0041 -0.008403,-0.0041 -0.005625,0 -0.008472,0.0041 -0.002778,0.0041 -0.002778,0.010764 v 0.01 q 0,0.00708 0.002778,0.010972 0.002847,0.00389 0.008472,0.00389 z m 0.0230555,0.00444 V 1.724974 h 0.0298611 v 0.00542 h -0.0240278 v 0.016111 h 0.0236111 v 0.00542 h -0.0236111 v 0.021667 z m 0.0494444,0 v -0.043194 h -0.0141667 v -0.00542 h 0.0341666 v 0.00542 h -0.0141667 v 0.043194 z m 0.0250694,0 -0.004931,-0.048611 h 0.005278 l 0.004653,0.046111 h 8.3333e-4 l 0.004375,-0.046111 h 0.0106944 l 0.004375,0.046111 h 8.3333e-4 l 0.004653,-0.046111 h 0.005278 l -0.004931,0.048611 h -0.010625 L 0.6056018,1.727474 h -8.3334e-4 l -0.004514,0.046111 z m 0.0330555,0 0.0147222,-0.048611 h 0.0109722 l 0.0147222,0.048611 h -0.00625 l -0.003542,-0.012083 h -0.0208333 l -0.003542,0.012083 z m 0.0113889,-0.0175 h 0.0176389 l -0.008403,-0.028611 h -8.3334e-4 z m 0.0311805,0.0175 V 1.724974 h 0.0173611 q 0.005,0 0.008264,0.00188 0.003333,0.00181 0.004931,0.00479 0.001667,0.00299 0.001667,0.00653 v 0.00208 q 0,0.00271 -0.001528,0.00542 -0.001458,0.00271 -0.004583,0.00417 v 8.333e-4 q 0.002083,2.778e-4 0.003264,0.00167 0.001181,0.00132 0.001181,0.00375 v 0.0175 h -0.005833 v -0.01625 q 0,-0.00181 -8.3333e-4,-0.00278 -8.3334e-4,-9.722e-4 -0.002917,-9.722e-4 h -0.0151389 v 0.02 z m 0.005833,-0.025417 h 0.0108333 q 0.009722,0 0.009722,-0.00833 v -0.00125 q 0,-0.00368 -0.002431,-0.0059 -0.002361,-0.00229 -0.007292,-0.00229 h -0.0108333 z m 0.0324999,0.025417 V 1.724974 h 0.0294444 v 0.00542 h -0.0236111 v 0.016111 h 0.0231944 v 0.00542 h -0.0231944 v 0.01625 h 0.0240278 v 0.00542 z m 0.0754165,0 V 1.724974 h 0.0294444 v 0.00542 H 0.7848376 V 1.746505 H 0.808032 v 0.00542 H 0.7848376 v 0.01625 h 0.0240278 v 0.00542 z m 0.0345138,0 0.0121528,-0.023958 V 1.7487934 L 0.81351811,1.724974 h 0.006389 l 0.0109028,0.021528 h 0.00125 l 0.0109028,-0.021528 h 0.006389 l -0.0121528,0.023819 v 8.334e-4 l 0.0121528,0.023958 h -0.006389 l -0.0109028,-0.021667 h -0.00125 l -0.0109028,0.021667 z m 0.0402777,0 V 1.724974 h 0.0173611 q 0.005,0 0.008264,0.00188 0.003333,0.00181 0.004931,0.00479 0.001667,0.00299 0.001667,0.00653 v 0.00208 q 0,0.00354 -0.001667,0.0066 -0.001667,0.00306 -0.005,0.00493 -0.003264,0.00181 -0.008194,0.00181 h -0.0115278 v 0.02 z m 0.005833,-0.025417 h 0.0108333 q 0.009722,0 0.009722,-0.00833 v -0.00125 q 0,-0.00368 -0.002431,-0.0059 -0.002361,-0.00229 -0.007292,-0.00229 h -0.0108333 z m 0.0325,0.025417 V 1.724974 h 0.0294444 v 0.00542 h -0.0236111 v 0.016111 h 0.0231944 v 0.00542 h -0.0231944 v 0.01625 h 0.0240278 v 0.00542 z m 0.0370832,0 V 1.724974 h 0.0173611 q 0.005,0 0.008264,0.00188 0.003333,0.00181 0.004931,0.00479 0.001667,0.00299 0.001667,0.00653 v 0.00208 q 0,0.00271 -0.001528,0.00542 -0.001458,0.00271 -0.004583,0.00417 v 8.333e-4 q 0.002083,2.778e-4 0.003264,0.00167 0.001181,0.00132 0.001181,0.00375 v 0.0175 h -0.005833 v -0.01625 q 0,-0.00181 -8.3334e-4,-0.00278 -8.3333e-4,-9.722e-4 -0.002917,-9.722e-4 h -0.0151389 v 0.02 z m 0.005833,-0.025417 H 0.945879 q 0.009722,0 0.009722,-0.00833 v -0.00125 q 0,-0.00368 -0.002431,-0.0059 -0.002361,-0.00229 -0.007292,-0.00229 H 0.9350447 Z m 0.0443055,0.025417 v -0.043194 h -0.0141667 v -0.00542 h 0.0341666 v 0.00542 H 0.9851845 v 0.043194 z"
       id="text5"
       style="font-size:0.0694444px;font-family:'Space Mono';-inkscape-font-specification:'Space Mono';letter-spacing:-0.00479167px;word-spacing:0px;stroke-width:0.012924"
       inkscape:label="founder"
       transform="scale(1.240709,0.80599077)"
       aria-label="AI &amp; SOFTWARE EXPERT&#10;" />
    <path
       d="m 0.25046349,1.9545221 v -0.048611 h 0.0173611 q 0.005,0 0.008264,0.00187 0.003333,0.00181 0.004931,0.00479 0.001667,0.00299 0.001667,0.00653 v 0.00208 q 0,0.00354 -0.001667,0.0066 -0.001667,0.00306 -0.005,0.00493 -0.003264,0.00181 -0.008194,0.00181 h -0.0115278 v 0.02 z m 0.005833,-0.025417 h 0.0108333 q 0.009722,0 0.009722,-0.00833 v -0.00125 q 0,-0.00368 -0.002431,-0.0059 -0.002361,-0.00229 -0.007292,-0.00229 h -0.0108333 z m 0.0318749,0.025417 v -0.048611 h 0.0173611 q 0.005,0 0.008264,0.00187 0.003333,0.00181 0.004931,0.00479 0.001667,0.00299 0.001667,0.00653 v 0.00208 q 0,0.00271 -0.001528,0.00542 -0.001458,0.00271 -0.004583,0.00417 v 8.334e-4 q 0.002083,2.778e-4 0.003264,0.00167 0.001181,0.00132 0.001181,0.00375 v 0.0175 h -0.005833 v -0.01625 q 0,-0.00181 -8.3333e-4,-0.00278 -8.3333e-4,-9.723e-4 -0.002917,-9.723e-4 h -0.0151389 v 0.02 z m 0.005833,-0.025417 h 0.0108333 q 0.009722,0 0.009722,-0.00833 v -0.00125 q 0,-0.00368 -0.002431,-0.0059 -0.002361,-0.00229 -0.007292,-0.00229 h -0.0108333 z m 0.0325,0.025417 v -0.048611 h 0.0294444 v 0.00542 h -0.0236111 v 0.016111 h 0.0231944 v 0.00542 h -0.0231944 v 0.01625 h 0.0240278 v 0.00542 z m 0.0468055,0 -0.01375,-0.048611 h 0.00625 l 0.0127083,0.046111 h 8.3333e-4 l 0.0127083,-0.046111 h 0.00625 l -0.01375,0.048611 z m 0.0433333,9.723e-4 q -0.001944,0 -0.003403,-0.00146 -0.001458,-0.00146 -0.001458,-0.0034 0,-0.00201 0.001458,-0.0034 0.001458,-0.00146 0.003403,-0.00146 0.002014,0 0.003403,0.00146 0.001458,0.00139 0.001458,0.0034 0,0.00194 -0.001458,0.0034 -0.001389,0.00146 -0.003403,0.00146 z m 0.0754165,0 q -0.007708,0 -0.0122222,-0.00444 -0.004444,-0.00451 -0.004444,-0.012917 v -0.032222 h 0.005833 v 0.032222 q 0,0.00583 0.002778,0.00889 0.002778,0.00306 0.008056,0.00306 0.005347,0 0.008056,-0.00306 0.002778,-0.00306 0.002778,-0.00889 v -0.032222 h 0.005833 v 0.032222 q 0,0.0084 -0.004514,0.012917 -0.004444,0.00444 -0.0121538,0.00444 z m 0.0386805,0 q -0.00625,0 -0.0104861,-0.00229 -0.004236,-0.00236 -0.006458,-0.00639 -0.002153,-0.00403 -0.002153,-0.0091 v -0.00208 h 0.005833 v 0.00167 q 0,0.00632 0.003542,0.00958 0.003542,0.00319 0.009722,0.00319 0.005417,0 0.008125,-0.00243 0.002778,-0.00243 0.002778,-0.00632 V 1.940911 q 0,-0.00382 -0.002847,-0.00583 -0.002778,-0.00201 -0.009097,-0.00292 -0.007292,-0.00104 -0.0116667,-0.0041 -0.004306,-0.00313 -0.004306,-0.00938 v -8.333e-4 q 0,-0.00382 0.002014,-0.00667 0.002083,-0.00292 0.005694,-0.00458 0.003611,-0.00167 0.008333,-0.00167 0.005486,0 0.009306,0.00201 0.003889,0.00201 0.005903,0.00535 0.002083,0.00326 0.002083,0.00722 v 0.00292 h -0.005833 v -0.0025 q 0,-0.00319 -0.001597,-0.00528 -0.001597,-0.00215 -0.004236,-0.00319 -0.002639,-0.00111 -0.005694,-0.00111 -0.002639,0 -0.005,9.028e-4 -0.002292,9.027e-4 -0.00375,0.00264 -0.001389,0.00167 -0.001389,0.00417 v 4.167e-4 q 0,0.00403 0.003264,0.0059 0.003264,0.00181 0.009792,0.00278 0.007639,0.00111 0.01125,0.00444 0.003611,0.00333 0.003611,0.00889 v 8.333e-4 q 0,0.00632 -0.004306,0.010278 -0.004236,0.00389 -0.0124305,0.00389 z m 0.0582638,-9.723e-4 v -0.00549 h 0.004167 v -0.037708 h -0.004167 v -0.00542 h 0.0159722 q 0.008958,0 0.013125,0.00437 0.004236,0.00431 0.004236,0.013681 v 0.0125 q 0,0.00938 -0.004236,0.01375 -0.004167,0.00431 -0.013125,0.00431 z m 0.01,-0.00542 h 0.005139 q 0.004236,0 0.006944,-0.00111 0.002778,-0.00118 0.004097,-0.00403 0.001319,-0.00285 0.001319,-0.00792 v -0.011667 q 0,-0.00507 -0.001319,-0.00792 -0.001319,-0.00285 -0.004097,-0.00396 -0.002708,-0.00118 -0.006944,-0.00118 h -0.005139 z m 0.0291666,0.00542 v -0.048611 h 0.0294444 v 0.00542 h -0.0236111 v 0.016111 h 0.0231944 v 0.00542 h -0.0231944 v 0.01625 h 0.0240278 v 0.00542 z m 0.0370833,0 v -0.048611 h 0.0173611 q 0.005,0 0.008264,0.00187 0.003333,0.00181 0.004931,0.00479 0.001667,0.00299 0.001667,0.00653 v 0.00208 q 0,0.00354 -0.001667,0.0066 -0.001667,0.00306 -0.005,0.00493 -0.003264,0.00181 -0.008194,0.00181 h -0.0115278 v 0.02 z m 0.005833,-0.025417 h 0.0108333 q 0.009722,0 0.009722,-0.00833 v -0.00125 q 0,-0.00368 -0.002431,-0.0059 -0.002361,-0.00229 -0.007292,-0.00229 h -0.0108333 z m 0.0443055,0.025417 v -0.043194 h -0.0141667 v -0.00542 h 0.0341666 v 0.00542 h -0.0141667 v 0.043194 z m 0.0783332,9.723e-4 q -0.007986,0 -0.0125694,-0.00507 -0.004514,-0.00514 -0.004514,-0.014792 v -0.010833 q 0,-0.00937 0.004514,-0.014583 0.004583,-0.00528 0.0125694,-0.00528 0.008056,0 0.0125694,0.00528 0.004514,0.00521 0.004514,0.014583 v 0.010833 q 0,0.00965 -0.004514,0.014792 -0.004514,0.00507 -0.0125694,0.00507 z m 0,-0.00542 q 0.005625,0 0.008403,-0.00389 0.002847,-0.00389 0.002847,-0.010972 v -0.01 q 0,-0.00667 -0.002847,-0.010764 -0.002778,-0.0041 -0.008403,-0.0041 -0.005625,0 -0.008472,0.0041 -0.002778,0.0041 -0.002778,0.010764 v 0.01 q 0,0.00708 0.002778,0.010972 0.002847,0.00389 0.008472,0.00389 z m 0.0230555,0.00444 v -0.048611 h 0.0298611 v 0.00542 h -0.0240278 v 0.016111 h 0.0236111 v 0.00542 h -0.0236111 v 0.021667 z m 0.0738888,0 v -0.00549 h 0.004167 v -0.037708 h -0.004167 v -0.00542 H 0.906643 q 0.008958,0 0.013125,0.00437 0.004236,0.00431 0.004236,0.013681 v 0.0125 q 0,0.00938 -0.004236,0.01375 -0.004167,0.00431 -0.013125,0.00431 z m 0.01,-0.00542 h 0.005139 q 0.004236,0 0.006944,-0.00111 0.002778,-0.00118 0.004097,-0.00403 0.001319,-0.00285 0.001319,-0.00792 v -0.011667 q 0,-0.00507 -0.001319,-0.00792 -0.001319,-0.00285 -0.004097,-0.00396 -0.002708,-0.00118 -0.006944,-0.00118 h -0.005139 z m 0.0291666,0.00542 v -0.048611 h 0.0294444 v 0.00542 h -0.0236111 v 0.016111 h 0.0231944 v 0.00542 h -0.0231944 v 0.01625 h 0.0240278 v 0.00542 z m 0.0377777,0 v -0.048611 h 0.0298611 v 0.00542 H 0.9734484 v 0.016111 h 0.0236111 v 0.00542 H 0.9734484 v 0.021667 z m 0.0376388,0 v -0.048611 h 0.029444 v 0.00542 H 1.011086 v 0.016111 h 0.023195 v 0.00542 H 1.011086 v 0.01625 h 0.024028 v 0.00542 z m 0.03625,0 V 1.9059034 H 1.05317 l 0.014028,0.046111 h 8.333e-4 v -0.046111 h 0.00583 v 0.048611 H 1.0621983 L 1.0481705,1.908411 h -8.333e-4 v 0.046111 z m 0.054861,9.723e-4 q -0.00625,0 -0.010486,-0.00229 -0.00424,-0.00236 -0.00646,-0.00639 -0.00215,-0.00403 -0.00215,-0.0091 v -0.00208 h 0.00583 v 0.00167 q 0,0.00632 0.00354,0.00958 0.00354,0.00319 0.00972,0.00319 0.00542,0 0.00812,-0.00243 0.00278,-0.00243 0.00278,-0.00632 V 1.940911 q 0,-0.00382 -0.00285,-0.00583 -0.00278,-0.00201 -0.0091,-0.00292 -0.00729,-0.00104 -0.011667,-0.0041 -0.00431,-0.00313 -0.00431,-0.00938 v -8.333e-4 q 0,-0.00382 0.00201,-0.00667 0.00208,-0.00292 0.00569,-0.00458 0.00361,-0.00167 0.00833,-0.00167 0.00549,0 0.00931,0.00201 0.00389,0.00201 0.0059,0.00535 0.00208,0.00326 0.00208,0.00722 v 0.00292 h -0.00583 v -0.0025 q 0,-0.00319 -0.0016,-0.00528 -0.0016,-0.00215 -0.00424,-0.00319 -0.00264,-0.00111 -0.00569,-0.00111 -0.00264,0 -0.005,9.028e-4 -0.00229,9.027e-4 -0.00375,0.00264 -0.00139,0.00167 -0.00139,0.00417 v 4.167e-4 q 0,0.00403 0.00326,0.0059 0.00326,0.00181 0.00979,0.00278 0.00764,0.00111 0.01125,0.00444 0.00361,0.00333 0.00361,0.00889 v 8.333e-4 q 0,0.00632 -0.00431,0.010278 -0.00424,0.00389 -0.012431,0.00389 z m 0.022014,-9.723e-4 v -0.048611 h 0.029444 v 0.00542 H 1.124211 v 0.016111 h 0.023194 v 0.00542 H 1.124211 v 0.01625 h 0.024028 v 0.00542 z"
       id="text7"
       style="font-size:0.0694444px;font-family:'Space Mono';-inkscape-font-specification:'Space Mono';letter-spacing:-0.00479167px;word-spacing:0px;stroke-width:0.012924"
       inkscape:label="email"
       transform="scale(1.240709,0.80599077)"
       aria-label="PREV. US DEPT OF DEFENSE&#10;" />
  </g>
  <g
     inkscape:groupmode="layer"
     id="g17"
     inkscape:label="subtext right"
     transform="translate(1.6534422,9.3015079e-4)"
     sodipodi:insensitive="true">
    <path
       d="m 0.58937835,1.70993 v -0.005 h 0.0204861 q 0.001875,0 0.001875,-0.00208 V 1.690767 h -8.3333e-4 q -0.001667,0.00313 -0.004583,0.00472 -0.002847,0.00153 -0.00625,0.00153 -0.004583,0 -0.008472,-0.00201 -0.003819,-0.00208 -0.006181,-0.00604 -0.002292,-0.00396 -0.002292,-0.00958 v -0.00111 q 0,-0.00562 0.002361,-0.00951 0.002361,-0.00396 0.006181,-0.00604 0.003819,-0.00208 0.008264,-0.00208 0.00375,0 0.006597,0.00167 0.002847,0.0016 0.004375,0.00472 h 8.3333e-4 v -0.00542 h 0.005417 v 0.042917 q 0,0.00236 -0.001528,0.00389 -0.001458,0.00153 -0.003819,0.00153 z m 0.0108333,-0.018056 q 0.003264,0 0.005833,-0.00153 0.002639,-0.0016 0.004167,-0.00444 0.001528,-0.00285 0.001528,-0.00667 v -8.334e-4 q 0,-0.00368 -0.001597,-0.00653 -0.001528,-0.00285 -0.004167,-0.00444 -0.002569,-0.00167 -0.005764,-0.00167 -0.003264,0 -0.005903,0.0016 -0.002569,0.00153 -0.004097,0.00438 -0.001528,0.00278 -0.001528,0.00653 v 0.00111 q 0,0.00382 0.001458,0.00667 0.001528,0.00278 0.004097,0.00431 0.002639,0.00153 0.005972,0.00153 z m 0.0202777,0.00417 v -0.005 h 0.007917 V 1.6666 h -0.007083 v -0.005 h 0.0125 v 0.00458 h 8.3334e-4 q 0.001319,-0.00285 0.00375,-0.00417 0.0025,-0.00139 0.005556,-0.00139 0.005139,0 0.008333,0.0034 0.003264,0.0034 0.003472,0.00993 l -0.005694,8.333e-4 q 0,-0.00479 -0.002292,-0.00687 -0.002292,-0.00215 -0.005625,-0.00215 -0.004236,0 -0.006319,0.00313 -0.002014,0.00306 -0.002014,0.00757 v 0.014583 h 0.00875 v 0.005 z M 0.67653099,1.65618 q -0.001944,0 -0.003403,-0.00146 -0.001458,-0.00146 -0.001458,-0.0034 0,-0.00201 0.001458,-0.0034 0.001458,-0.00146 0.003403,-0.00146 0.002014,0 0.003403,0.00146 0.001458,0.00139 0.001458,0.0034 0,0.00194 -0.001458,0.0034 -0.001389,0.00146 -0.003403,0.00146 z m -0.0147222,0.039861 v -0.005 h 0.0120833 V 1.666597 h -0.0108333 v -0.005 h 0.01625 v 0.029444 h 0.01125 v 0.005 z m 0.0514583,9.722e-4 q -0.004583,0 -0.008333,-0.00201 -0.00375,-0.00208 -0.005972,-0.00604 -0.002222,-0.00396 -0.002222,-0.00958 v -0.00111 q 0,-0.00562 0.002222,-0.00951 0.002292,-0.00396 0.005972,-0.00604 0.00375,-0.00208 0.008194,-0.00208 0.003542,0 0.006597,0.0016 0.003125,0.00153 0.004792,0.00479 h 8.3334e-4 V 1.64743 h 0.005417 v 0.048611 h -0.005417 v -0.00528 h -8.3334e-4 q -0.001667,0.00319 -0.004931,0.00472 -0.003194,0.00153 -0.006319,0.00153 z m 5.5555e-4,-0.00514 q 0.003264,0 0.005833,-0.00153 0.002639,-0.0016 0.004167,-0.00444 0.001528,-0.00285 0.001528,-0.00667 v -8.334e-4 q 0,-0.00368 -0.001597,-0.00653 -0.001528,-0.00285 -0.004167,-0.00444 -0.002569,-0.00167 -0.005764,-0.00167 -0.003264,0 -0.005903,0.0016 -0.002569,0.00153 -0.004097,0.00438 -0.001528,0.00278 -0.001528,0.00653 v 0.00111 q 0,0.00382 0.001458,0.00667 0.001528,0.00278 0.004167,0.00431 0.002639,0.00153 0.005903,0.00153 z m 0.0402083,0.015 q -0.002361,0 -0.003889,-0.00153 -0.001458,-0.00153 -0.001458,-0.00389 v -0.059444 q 0,-0.00236 0.001458,-0.00389 0.001528,-0.00153 0.003889,-0.00153 h 0.006736 v 0.005 h -0.004792 q -0.001875,0 -0.001875,0.00208 v 0.056111 q 0,0.00208 0.001875,0.00208 h 0.004792 v 0.005 z m 0.0200694,-0.010833 v -0.005 h 0.0125 V 1.65243 h -0.0120833 v -0.005 h 0.0175 v 0.043611 h 0.0125 v 0.005 z m 0.0510416,9.722e-4 q -0.004514,0 -0.008194,-0.00201 -0.003611,-0.00208 -0.005764,-0.00597 -0.002153,-0.00396 -0.002153,-0.00965 v -0.00111 q 0,-0.00562 0.002153,-0.00958 0.002153,-0.00396 0.005764,-0.00597 0.003681,-0.00208 0.008056,-0.00208 0.003542,0 0.006389,0.0016 0.002917,0.00153 0.004583,0.00479 h 8.3333e-4 v -0.00542 h 0.005417 v 0.027361 q 0,0.00208 0.001875,0.00208 h 0.001736 v 0.005 h -0.003681 q -0.002153,0 -0.00375,-0.00139 -0.001597,-0.00139 -0.001597,-0.00444 h -8.3333e-4 q -0.001667,0.0034 -0.004653,0.00514 -0.002917,0.00167 -0.006181,0.00167 z m 5.5556e-4,-0.00514 q 0.004861,0 0.007986,-0.00347 0.003125,-0.00347 0.003125,-0.00917 V 1.678399 q 0,-0.00368 -0.001458,-0.00653 -0.001458,-0.00285 -0.003958,-0.00444 -0.0025,-0.00167 -0.005694,-0.00167 -0.003194,0 -0.005694,0.0016 -0.0025,0.00153 -0.003958,0.00438 -0.001458,0.00278 -0.001458,0.00653 v 0.00111 q 0,0.00583 0.003125,0.00917 0.003125,0.00333 0.007986,0.00333 z m 0.0406249,0.00514 q -0.003333,0 -0.006667,-0.00153 -0.003333,-0.0016 -0.005139,-0.00472 h -8.3333e-4 v 0.00528 h -0.005417 V 1.64743 h 0.005417 v 0.019583 h 8.3333e-4 q 0.001806,-0.00313 0.005,-0.00472 0.003194,-0.00167 0.006944,-0.00167 0.004236,0 0.007847,0.00208 0.003611,0.00201 0.005764,0.00597 0.002222,0.00389 0.002222,0.00944 v 0.00139 q 0,0.00562 -0.002153,0.00951 -0.002153,0.00389 -0.005833,0.00597 -0.003611,0.00201 -0.007986,0.00201 z m -0.001111,-0.00514 q 0.004931,0 0.008194,-0.00333 0.003333,-0.00333 0.003333,-0.00903 v -0.00139 q 0,-0.00368 -0.001528,-0.00646 -0.001528,-0.00278 -0.004167,-0.00431 -0.002569,-0.0016 -0.005833,-0.0016 -0.003194,0 -0.005833,0.00167 -0.002569,0.0016 -0.004167,0.00444 -0.001528,0.00285 -0.001528,0.00653 v 8.334e-4 q 0,0.00382 0.001528,0.00667 0.001528,0.00285 0.004167,0.00444 0.002639,0.00153 0.005833,0.00153 z m 0.0280555,0.015 v -0.005 h 0.004792 q 0.001875,0 0.001875,-0.00208 V 1.64368 q 0,-0.00208 -0.001875,-0.00208 h -0.004792 v -0.005 h 0.006736 q 0.002361,0 0.003819,0.00153 0.001528,0.00153 0.001528,0.00389 v 0.059444 q 0,0.00236 -0.001528,0.00389 -0.001458,0.00153 -0.003819,0.00153 z m 0.0769443,-0.00347 -0.004931,-0.00153 0.0202778,-0.061805 0.004861,0.00153 z m 0.0377083,0 -0.00493,-0.00153 0.020278,-0.061805 0.00486,0.00153 z m 0.068403,-0.00736 V 1.64743 h 0.029861 v 0.00542 h -0.024028 v 0.016111 h 0.023611 v 0.00542 h -0.023611 v 0.021667 z m 0.052361,9.722e-4 q -0.00799,0 -0.012569,-0.00507 -0.00451,-0.00514 -0.00451,-0.014792 v -0.010833 q 0,-0.00938 0.00451,-0.014583 0.00458,-0.00528 0.012569,-0.00528 0.00806,0 0.012569,0.00528 0.00451,0.00521 0.00451,0.014583 v 0.010833 q 0,0.00965 -0.00451,0.014792 -0.00451,0.00507 -0.012569,0.00507 z m 0,-0.00542 q 0.00562,0 0.0084,-0.00389 0.00285,-0.00389 0.00285,-0.010972 v -0.01 q 0,-0.00667 -0.00285,-0.010764 -0.00278,-0.0041 -0.0084,-0.0041 -0.00563,0 -0.00847,0.0041 -0.00278,0.0041 -0.00278,0.010764 v 0.01 q 0,0.00708 0.00278,0.010972 0.00285,0.00389 0.00847,0.00389 z m 0.037708,0.00542 q -0.00771,0 -0.012222,-0.00444 -0.00444,-0.00451 -0.00444,-0.012917 V 1.64743 h 0.00583 v 0.032222 q 0,0.00583 0.00278,0.00889 0.00278,0.00306 0.00806,0.00306 0.00535,0 0.00806,-0.00306 0.00278,-0.00306 0.00278,-0.00889 V 1.64743 h 0.00583 v 0.032222 q 0,0.0084 -0.00451,0.012917 -0.00444,0.00444 -0.012153,0.00444 z M 1.187919,1.6960411 V 1.64743 h 0.011667 l 0.014028,0.046111 h 8.333e-4 V 1.64743 h 0.00583 V 1.696041 H 1.2086135 L 1.1945857,1.64993 h -8.333e-4 v 0.046111 z m 0.037708,0 v -0.00549 h 0.00417 V 1.6528431 H 1.225627 V 1.64743 h 0.015972 q 0.00896,0 0.013125,0.00438 0.00424,0.00431 0.00424,0.013681 v 0.0125 q 0,0.00938 -0.00424,0.01375 -0.00417,0.00431 -0.013125,0.00431 z m 0.01,-0.00542 h 0.00514 q 0.00424,0 0.00694,-0.00111 0.00278,-0.00118 0.0041,-0.00403 0.00132,-0.00285 0.00132,-0.00792 v -0.011667 q 0,-0.00507 -0.00132,-0.00792 -0.00132,-0.00285 -0.0041,-0.00396 -0.00271,-0.00118 -0.00694,-0.00118 h -0.00514 z m 0.029167,0.00542 V 1.64743 H 1.294238 V 1.65285 H 1.270627 v 0.016111 h 0.023194 v 0.00542 H 1.270627 v 0.01625 h 0.024028 v 0.00542 z m 0.037083,0 V 1.64743 h 0.017361 q 0.005,0 0.00826,0.00188 0.00333,0.00181 0.00493,0.00479 0.00167,0.00299 0.00167,0.00653 v 0.00208 q 0,0.00271 -0.00153,0.00542 -0.00146,0.00271 -0.00458,0.00417 v 8.334e-4 q 0.00208,2.777e-4 0.00326,0.00167 0.00118,0.00132 0.00118,0.00375 v 0.0175 h -0.00583 v -0.01625 q 0,-0.00181 -8.334e-4,-0.00278 -8.333e-4,-9.722e-4 -0.00292,-9.722e-4 h -0.015139 v 0.02 z m 0.00583,-0.025417 H 1.31854 q 0.00972,0 0.00972,-0.00833 v -0.00125 q 0,-0.00368 -0.00243,-0.0059 -0.00236,-0.00229 -0.00729,-0.00229 H 1.307707 Z"
       id="text11"
       style="font-size:0.0694444px;font-family:'Space Mono';-inkscape-font-specification:'Space Mono';text-align:end;letter-spacing:-0.00479167px;word-spacing:0px;text-anchor:end;fill-opacity:0.846154;stroke-width:0.012924"
       inkscape:label="gridlab"
       transform="scale(1.240709,0.80599077)"
       aria-label="grid[lab] // FOUNDER&#10;" />
    <path
       d="m 0.60080882,1.9554944 q -0.004792,0 -0.008819,-0.00201 -0.004028,-0.00208 -0.006528,-0.00604 -0.002431,-0.00396 -0.002431,-0.00958 V 1.937031 q 0,-0.00556 0.002431,-0.00958 0.0025,-0.00403 0.006528,-0.00618 0.004028,-0.00215 0.008819,-0.00215 0.004375,0 0.007778,0.00174 0.003472,0.00167 0.005625,0.00465 0.002222,0.00299 0.002847,0.00681 l -0.005417,0.00125 q -2.7777e-4,-0.00243 -0.001597,-0.00451 -0.001319,-0.00215 -0.003681,-0.00347 -0.002292,-0.00132 -0.005694,-0.00132 -0.003333,0 -0.006111,0.00167 -0.002708,0.0016 -0.004375,0.00451 -0.001597,0.00285 -0.001597,0.0066 v 8.334e-4 q 0,0.00389 0.001597,0.00674 0.001667,0.00278 0.004444,0.00431 0.002778,0.00146 0.006181,0.00146 0.003403,0 0.005694,-0.00132 0.002361,-0.00139 0.003611,-0.00347 0.001319,-0.00215 0.001667,-0.00451 l 0.005417,0.00125 q -6.9445e-4,0.00382 -0.002847,0.00681 -0.002153,0.00299 -0.005625,0.00472 -0.003403,0.00167 -0.007917,0.00167 z m 0.0370833,0 q -0.004583,0 -0.008542,-0.00208 -0.003889,-0.00208 -0.006319,-0.00604 -0.002431,-0.00396 -0.002431,-0.00965 v -8.333e-4 q 0,-0.00562 0.002431,-0.00958 0.002431,-0.00403 0.006319,-0.00611 0.003958,-0.00208 0.008542,-0.00208 0.004583,0 0.008472,0.00208 0.003958,0.00208 0.006389,0.00611 0.002431,0.00396 0.002431,0.00958 v 8.333e-4 q 0,0.00569 -0.002431,0.00965 -0.002431,0.00396 -0.006389,0.00604 -0.003889,0.00208 -0.008472,0.00208 z m 0,-0.00514 q 0.003333,0 0.005972,-0.00153 0.002639,-0.00153 0.004167,-0.00438 0.001597,-0.00285 0.001597,-0.00674 v -8.333e-4 q 0,-0.00375 -0.001597,-0.0066 -0.001528,-0.00285 -0.004236,-0.00444 -0.002639,-0.0016 -0.005903,-0.0016 -0.003264,0 -0.005972,0.0016 -0.002639,0.0016 -0.004236,0.00444 -0.001528,0.00285 -0.001528,0.0066 v 8.333e-4 q 0,0.00389 0.001528,0.00674 0.001597,0.00285 0.004236,0.00438 0.002708,0.00153 0.005972,0.00153 z m 0.0224999,0.00417 v -0.034444 h 0.005417 v 0.00583 h 8.3333e-4 q 0.003194,-0.00681 0.0111111,-0.00681 0.005972,0 0.009514,0.00375 0.003542,0.00368 0.003542,0.011111 v 0.020555 h -0.005417 v -0.019444 q 0,-0.00542 -0.002431,-0.00812 -0.002431,-0.00271 -0.006597,-0.00271 -0.004861,0 -0.007708,0.0034 -0.002847,0.00333 -0.002847,0.00896 v 0.017917 z m 0.0527083,0 q -0.002361,0 -0.003889,-0.00153 -0.001458,-0.00153 -0.001458,-0.00389 v -0.024028 h -0.0108333 v -0.005 h 0.0108333 v -0.014167 h 0.005417 v 0.014167 h 0.0133333 v 0.005 h -0.0133333 v 0.022361 q 0,0.00208 0.001875,0.00208 h 0.009792 v 0.005 z m 0.0360416,9.723e-4 q -0.004514,0 -0.008194,-0.00201 -0.003611,-0.00208 -0.005764,-0.00597 -0.002153,-0.00396 -0.002153,-0.00965 v -0.00111 q 0,-0.00562 0.002153,-0.00958 0.002153,-0.00396 0.005764,-0.00597 0.003681,-0.00208 0.008056,-0.00208 0.003542,0 0.006389,0.0016 0.002917,0.00153 0.004583,0.00479 h 8.3333e-4 v -0.00542 h 0.005417 v 0.027361 q 0,0.00208 0.001875,0.00208 h 0.001736 v 0.005 h -0.003681 q -0.002153,0 -0.00375,-0.00139 -0.001597,-0.00139 -0.001597,-0.00444 h -8.3333e-4 q -0.001667,0.0034 -0.004653,0.00514 -0.002917,0.00167 -0.006181,0.00167 z m 5.5556e-4,-0.00514 q 0.004861,0 0.007986,-0.00347 0.003125,-0.00347 0.003125,-0.00917 v -8.333e-4 q 0,-0.00368 -0.001458,-0.00653 -0.001458,-0.00285 -0.003958,-0.00444 -0.0025,-0.00167 -0.005694,-0.00167 -0.003194,0 -0.005694,0.0016 -0.0025,0.00153 -0.003958,0.00438 -0.001458,0.00278 -0.001458,0.00653 v 0.00111 q 0,0.00583 0.003125,0.00917 0.003125,0.00333 0.007986,0.00333 z m 0.0396527,0.00514 q -0.004792,0 -0.008819,-0.00201 -0.004028,-0.00208 -0.006528,-0.00604 -0.002431,-0.00396 -0.002431,-0.00958 v -8.334e-4 q 0,-0.00556 0.002431,-0.00958 0.0025,-0.00403 0.006528,-0.00618 0.004028,-0.00215 0.008819,-0.00215 0.004375,0 0.007778,0.00174 0.003472,0.00167 0.005625,0.00465 0.002222,0.00299 0.002847,0.00681 l -0.005417,0.00125 q -2.7778e-4,-0.00243 -0.001597,-0.00451 -0.001319,-0.00215 -0.003681,-0.00347 -0.002292,-0.00132 -0.005694,-0.00132 -0.003333,0 -0.006111,0.00167 -0.002708,0.0016 -0.004375,0.00451 -0.001597,0.00285 -0.001597,0.0066 v 8.334e-4 q 0,0.00389 0.001597,0.00674 0.001667,0.00278 0.004444,0.00431 0.002778,0.00146 0.006181,0.00146 0.003403,0 0.005694,-0.00132 0.002361,-0.00139 0.003611,-0.00347 0.001319,-0.00215 0.001667,-0.00451 l 0.005417,0.00125 q -6.9444e-4,0.00382 -0.002847,0.00681 -0.002153,0.00299 -0.005625,0.00472 -0.003403,0.00167 -0.007917,0.00167 z m 0.0368749,-9.723e-4 q -0.002361,0 -0.003889,-0.00153 -0.001458,-0.00153 -0.001458,-0.00389 v -0.024028 h -0.0108333 v -0.005 h 0.0108333 v -0.014167 h 0.005417 v 0.014167 h 0.0133333 v 0.005 h -0.0133333 v 0.022361 q 0,0.00208 0.001875,0.00208 h 0.009792 v 0.005 z m 0.031111,9.723e-4 q -0.003403,0 -0.006111,-0.00181 -0.002639,-0.00187 -0.004167,-0.00521 -0.001528,-0.0034 -0.001528,-0.00806 v -0.00125 q 0,-0.00465 0.001528,-0.00799 0.001597,-0.0034 0.004236,-0.00521 0.002639,-0.00188 0.005903,-0.00188 0.003194,0 0.004861,0.00125 0.001736,0.00118 0.002917,0.00347 h 8.3333e-4 v -0.00375 h 0.005417 v 0.022361 q 0,0.00208 0.001875,0.00208 h 0.001667 q 0.001875,0 0.001875,-0.00208 v -0.019167 q 0,-0.00451 -0.002153,-0.00681 -0.002083,-0.00236 -0.006597,-0.00236 h -0.0195833 v -0.005 h 0.0201389 q 0.006389,0 0.01,0.0034 0.003611,0.00333 0.003611,0.010208 v 0.021389 q 0,0.00236 -0.001528,0.00389 -0.001458,0.00153 -0.003819,0.00153 h -0.005556 q -0.002569,0 -0.00375,-0.00132 -0.001181,-0.00139 -0.001181,-0.00326 h -8.3333e-4 q -8.3334e-4,0.00257 -0.002847,0.0041 -0.001944,0.00146 -0.005208,0.00146 z m 0.001042,-0.00514 q 0.002847,0 0.004444,-0.00132 0.001597,-0.00132 0.002292,-0.00354 6.9444e-4,-0.00229 6.9444e-4,-0.00507 v -0.00125 q 0,-0.00264 -6.9444e-4,-0.00486 -6.9445e-4,-0.00229 -0.002292,-0.00368 -0.001597,-0.00139 -0.004444,-0.00139 -0.003472,0 -0.005486,0.00292 -0.001944,0.00285 -0.001944,0.00701 v 0.00125 q 0,0.00438 0.001944,0.00715 0.002014,0.00278 0.005486,0.00278 z m 0.0438194,-0.035694 q -0.001944,0 -0.003403,-0.00146 -0.001458,-0.00146 -0.001458,-0.0034 0,-0.00201 0.001458,-0.0034 0.001458,-0.00146 0.003403,-0.00146 0.002014,0 0.003403,0.00146 0.001458,0.00139 0.001458,0.0034 0,0.00194 -0.001458,0.0034 -0.001389,0.00146 -0.003403,0.00146 z M 0.887475,1.9545221 v -0.005 H 0.8995583 V 1.9250777 H 0.888725 v -0.005 h 0.01625 v 0.029444 h 0.01125 v 0.005 z m 0.0526388,9.723e-4 q -0.005347,0 -0.00875,-0.00181 -0.003403,-0.00187 -0.005069,-0.00472 -0.001667,-0.00292 -0.001875,-0.00597 l 0.005139,-0.00125 q 3.4722e-4,0.00396 0.003056,0.00639 0.002778,0.00236 0.007222,0.00236 0.003819,0 0.006111,-0.00146 0.002361,-0.00153 0.002361,-0.00424 0,-0.00292 -0.002292,-0.00417 -0.002292,-0.00125 -0.007431,-0.0016 -0.005903,-4.166e-4 -0.009167,-0.00278 -0.003194,-0.00243 -0.003194,-0.00687 v -4.167e-4 q 0,-0.00326 0.001806,-0.00542 0.001806,-0.00222 0.004653,-0.00333 0.002847,-0.00111 0.006042,-0.00111 0.004583,0 0.007569,0.0016 0.003056,0.00153 0.004653,0.00403 0.001597,0.00243 0.001944,0.00507 l -0.005139,0.00125 q -2.7778e-4,-0.00333 -0.002639,-0.00521 -0.002361,-0.00188 -0.006111,-0.00188 -0.002917,0 -0.005208,0.00125 -0.002292,0.00125 -0.002292,0.00375 0,0.0025 0.002083,0.00382 0.002153,0.00132 0.007778,0.00174 0.005972,4.862e-4 0.009167,0.00292 0.003194,0.00236 0.003194,0.00694 v 4.166e-4 q 0,0.005 -0.003819,0.00785 -0.00375,0.00285 -0.009792,0.00285 z m 0.0352777,0 q -0.004514,0 -0.008194,-0.00201 -0.003611,-0.00208 -0.005764,-0.00597 -0.002153,-0.00396 -0.002153,-0.00965 v -0.00111 q 0,-0.00562 0.002153,-0.00958 0.002153,-0.00396 0.005764,-0.00597 0.003681,-0.00208 0.008056,-0.00208 0.003542,0 0.006389,0.0016 0.002917,0.00153 0.004583,0.00479 h 8.3333e-4 v -0.00542 h 0.005417 v 0.027361 q 0,0.00208 0.001875,0.00208 h 0.001736 v 0.005 h -0.003681 q -0.002153,0 -0.00375,-0.00139 -0.001597,-0.00139 -0.001597,-0.00444 H 0.9862255 q -0.001667,0.0034 -0.004653,0.00514 -0.002917,0.00167 -0.006181,0.00167 z m 5.5555e-4,-0.00514 q 0.004861,0 0.007986,-0.00347 0.003125,-0.00347 0.003125,-0.00917 v -8.333e-4 q 0,-0.00368 -0.001458,-0.00653 -0.001458,-0.00285 -0.003958,-0.00444 -0.0025,-0.00167 -0.005694,-0.00167 -0.003194,0 -0.005694,0.0016 -0.0025,0.00153 -0.003958,0.00438 -0.001458,0.00278 -0.001458,0.00653 v 0.00111 q 0,0.00583 0.003125,0.00917 0.003125,0.00333 0.007986,0.00333 z m 0.0371526,0.00514 q -0.00451,0 -0.00819,-0.00201 -0.00361,-0.00208 -0.005764,-0.00597 -0.002153,-0.00396 -0.002153,-0.00965 v -0.00111 q 0,-0.00562 0.002153,-0.00958 0.002153,-0.00396 0.005764,-0.00597 0.00368,-0.00208 0.00806,-0.00208 0.00354,0 0.00639,0.0016 0.00292,0.00153 0.00458,0.00479 h 8.334e-4 v -0.00542 h 0.00542 v 0.027361 q 0,0.00208 0.00188,0.00208 h 0.00174 v 0.005 h -0.00368 q -0.00215,0 -0.00375,-0.00139 -0.0016,-0.00139 -0.0016,-0.00444 h -8.334e-4 q -0.00167,0.0034 -0.00465,0.00514 -0.00292,0.00167 -0.00618,0.00167 z m 5.556e-4,-0.00514 q 0.00486,0 0.00799,-0.00347 0.00312,-0.00347 0.00312,-0.00917 v -8.333e-4 q 0,-0.00368 -0.00146,-0.00653 -0.00146,-0.00285 -0.00396,-0.00444 -0.0025,-0.00167 -0.00569,-0.00167 -0.00319,0 -0.00569,0.0016 -0.0025,0.00153 -0.00396,0.00438 -0.00146,0.00278 -0.00146,0.00653 v 0.00111 q 0,0.00583 0.00313,0.00917 0.00312,0.00333 0.00799,0.00333 z m 0.039653,0.00514 q -0.00479,0 -0.00882,-0.00201 -0.00403,-0.00208 -0.00653,-0.00604 -0.00243,-0.00396 -0.00243,-0.00958 V 1.937031 q 0,-0.00556 0.00243,-0.00958 0.0025,-0.00403 0.00653,-0.00618 0.00403,-0.00215 0.00882,-0.00215 0.00438,0 0.00778,0.00174 0.00347,0.00167 0.00562,0.00465 0.00222,0.00299 0.00285,0.00681 l -0.00542,0.00125 q -2.778e-4,-0.00243 -0.0016,-0.00451 -0.00132,-0.00215 -0.00368,-0.00347 -0.00229,-0.00132 -0.00569,-0.00132 -0.00333,0 -0.00611,0.00167 -0.00271,0.0016 -0.00438,0.00451 -0.0016,0.00285 -0.0016,0.0066 v 8.334e-4 q 0,0.00389 0.0016,0.00674 0.00167,0.00278 0.00444,0.00431 0.00278,0.00146 0.00618,0.00146 0.0034,0 0.00569,-0.00132 0.00236,-0.00139 0.00361,-0.00347 0.00132,-0.00215 0.00167,-0.00451 l 0.00542,0.00125 q -6.944e-4,0.00382 -0.00285,0.00681 -0.00215,0.00299 -0.00562,0.00472 -0.0034,0.00167 -0.00792,0.00167 z m 0.038681,0 q -0.00333,0 -0.00667,-0.00153 -0.00333,-0.0016 -0.00514,-0.00472 H 1.079346 v 0.00528 h -0.00542 v -0.048611 h 0.00542 v 0.019583 h 8.333e-4 q 0.00181,-0.00313 0.005,-0.00472 0.00319,-0.00167 0.00694,-0.00167 0.00424,0 0.00785,0.00208 0.00361,0.00201 0.00576,0.00597 0.00222,0.00389 0.00222,0.00944 v 0.00139 q 0,0.00562 -0.00215,0.00951 -0.00215,0.00389 -0.00583,0.00597 -0.00361,0.00201 -0.00799,0.00201 z m -0.00111,-0.00514 q 0.00493,0 0.00819,-0.00333 0.00333,-0.00333 0.00333,-0.00903 v -0.00139 q 0,-0.00368 -0.00153,-0.00646 -0.00153,-0.00278 -0.00417,-0.00431 -0.00257,-0.0016 -0.00583,-0.0016 -0.00319,0 -0.00583,0.00167 -0.00257,0.0016 -0.00417,0.00444 -0.00153,0.00285 -0.00153,0.00653 v 8.333e-4 q 0,0.00382 0.00153,0.00667 0.00153,0.00285 0.00417,0.00444 0.00264,0.00153 0.00583,0.00153 z m 0.037361,0.00514 q -0.00493,0 -0.00875,-0.00222 -0.00375,-0.00229 -0.0059,-0.00625 -0.00215,-0.00403 -0.00215,-0.00931 v -0.00167 q 0,-0.00486 0.00222,-0.00868 0.00222,-0.00382 0.00604,-0.00604 0.00389,-0.00222 0.00868,-0.00222 0.00424,0 0.00729,0.00153 0.00313,0.00153 0.00507,0.00389 0.00201,0.00236 0.00292,0.00507 9.723e-4,0.00264 9.723e-4,0.00493 v 0.00444 h -0.027778 q 2.083e-4,0.00507 0.00319,0.00826 0.00306,0.00312 0.00833,0.00312 0.00493,0 0.00736,-0.00208 0.00243,-0.00208 0.00333,-0.005 l 0.00514,0.00139 q -0.00146,0.00479 -0.00542,0.00785 -0.00389,0.00299 -0.010556,0.00299 z m -0.01125,-0.021528 h 0.022222 q -1.389e-4,-0.00299 -0.00174,-0.00514 -0.00153,-0.00222 -0.00396,-0.0034 -0.00243,-0.00118 -0.00514,-0.00118 -0.00458,0 -0.00771,0.00278 -0.00312,0.00278 -0.00368,0.00694 z m 0.033611,0.020555 v -0.005 h 0.0125 v -0.03861 h -0.012083 v -0.005 h 0.0175 v 0.043611 h 0.0125 v 0.005 z m 0.037708,0 v -0.005 h 0.0125 v -0.03861 h -0.012083 v -0.005 h 0.0175 v 0.043611 h 0.0125 v 0.005 z m 0.052917,9.723e-4 q -0.00194,0 -0.0034,-0.00146 -0.00146,-0.00146 -0.00146,-0.0034 0,-0.00201 0.00146,-0.0034 0.00146,-0.00146 0.0034,-0.00146 0.00201,0 0.0034,0.00146 0.00146,0.00139 0.00146,0.0034 0,0.00194 -0.00146,0.0034 -0.00139,0.00146 -0.0034,0.00146 z m 0.038056,-0.040833 q -0.00194,0 -0.0034,-0.00146 -0.00146,-0.00146 -0.00146,-0.0034 0,-0.00201 0.00146,-0.0034 0.00146,-0.00146 0.0034,-0.00146 0.00201,0 0.0034,0.00146 0.00146,0.00139 0.00146,0.0034 0,0.00194 -0.00146,0.0034 -0.00139,0.00146 -0.0034,0.00146 z m -0.014722,0.039861 v -0.005 h 0.012083 v -0.024444 h -0.010833 v -0.005 h 0.01625 v 0.029444 h 0.01125 v 0.005 z m 0.052083,9.723e-4 q -0.00458,0 -0.00854,-0.00208 -0.00389,-0.00208 -0.00632,-0.00604 -0.00243,-0.00396 -0.00243,-0.00965 v -8.333e-4 q 0,-0.00562 0.00243,-0.00958 0.00243,-0.00403 0.00632,-0.00611 0.00396,-0.00208 0.00854,-0.00208 0.00458,0 0.00847,0.00208 0.00396,0.00208 0.00639,0.00611 0.00243,0.00396 0.00243,0.00958 v 8.333e-4 q 0,0.00569 -0.00243,0.00965 -0.00243,0.00396 -0.00639,0.00604 -0.00389,0.00208 -0.00847,0.00208 z m 0,-0.00514 q 0.00333,0 0.00597,-0.00153 0.00264,-0.00153 0.00417,-0.00438 0.0016,-0.00285 0.0016,-0.00674 v -8.333e-4 q 0,-0.00375 -0.0016,-0.0066 -0.00153,-0.00285 -0.00424,-0.00444 -0.00264,-0.0016 -0.0059,-0.0016 -0.00326,0 -0.00597,0.0016 -0.00264,0.0016 -0.00424,0.00444 -0.00153,0.00285 -0.00153,0.0066 v 8.333e-4 q 0,0.00389 0.00153,0.00674 0.0016,0.00285 0.00424,0.00438 0.00271,0.00153 0.00597,0.00153 z"
       id="text15"
       style="font-size:0.0694444px;font-family:'Space Mono';-inkscape-font-specification:'Space Mono';text-align:end;letter-spacing:-0.00479167px;word-spacing:0px;text-anchor:end;fill-opacity:0.846154;stroke-width:0.012924"
       inkscape:label="email"
       transform="scale(1.240709,0.80599077)"
       aria-label="contact@isaacbell.io&#10;" />
    <g
       id="text17"
       style="font-size:0.0694444px;font-family:'Space Mono';-inkscape-font-specification:'Space Mono';text-align:end;letter-spacing:-0.00479167px;word-spacing:0px;text-anchor:end;fill-opacity:0.846154;stroke-width:0.012924"
       inkscape:label="phone"
       transform="scale(1.240709,0.80599077)"
       aria-label="contact@isaacbell.io&#10;+1 470 300-3688">
      <path
         d="m 0.60080882,1.9554944 q -0.004792,0 -0.008819,-0.00201 -0.004028,-0.00208 -0.006528,-0.00604 -0.002431,-0.00396 -0.002431,-0.00958 V 1.937031 q 0,-0.00556 0.002431,-0.00958 0.0025,-0.00403 0.006528,-0.00618 0.004028,-0.00215 0.008819,-0.00215 0.004375,0 0.007778,0.00174 0.003472,0.00167 0.005625,0.00465 0.002222,0.00299 0.002847,0.00681 l -0.005417,0.00125 q -2.7777e-4,-0.00243 -0.001597,-0.00451 -0.001319,-0.00215 -0.003681,-0.00347 -0.002292,-0.00132 -0.005694,-0.00132 -0.003333,0 -0.006111,0.00167 -0.002708,0.0016 -0.004375,0.00451 -0.001597,0.00285 -0.001597,0.0066 v 8.334e-4 q 0,0.00389 0.001597,0.00674 0.001667,0.00278 0.004444,0.00431 0.002778,0.00146 0.006181,0.00146 0.003403,0 0.005694,-0.00132 0.002361,-0.00139 0.003611,-0.00347 0.001319,-0.00215 0.001667,-0.00451 l 0.005417,0.00125 q -6.9445e-4,0.00382 -0.002847,0.00681 -0.002153,0.00299 -0.005625,0.00472 -0.003403,0.00167 -0.007917,0.00167 z m 0.0370833,0 q -0.004583,0 -0.008542,-0.00208 -0.003889,-0.00208 -0.006319,-0.00604 -0.002431,-0.00396 -0.002431,-0.00965 v -8.333e-4 q 0,-0.00562 0.002431,-0.00958 0.002431,-0.00403 0.006319,-0.00611 0.003958,-0.00208 0.008542,-0.00208 0.004583,0 0.008472,0.00208 0.003958,0.00208 0.006389,0.00611 0.002431,0.00396 0.002431,0.00958 v 8.333e-4 q 0,0.00569 -0.002431,0.00965 -0.002431,0.00396 -0.006389,0.00604 -0.003889,0.00208 -0.008472,0.00208 z m 0,-0.00514 q 0.003333,0 0.005972,-0.00153 0.002639,-0.00153 0.004167,-0.00438 0.001597,-0.00285 0.001597,-0.00674 v -8.333e-4 q 0,-0.00375 -0.001597,-0.0066 -0.001528,-0.00285 -0.004236,-0.00444 -0.002639,-0.0016 -0.005903,-0.0016 -0.003264,0 -0.005972,0.0016 -0.002639,0.0016 -0.004236,0.00444 -0.001528,0.00285 -0.001528,0.0066 v 8.333e-4 q 0,0.00389 0.001528,0.00674 0.001597,0.00285 0.004236,0.00438 0.002708,0.00153 0.005972,0.00153 z m 0.0224999,0.00417 v -0.034444 h 0.005417 v 0.00583 h 8.3333e-4 q 0.003194,-0.00681 0.0111111,-0.00681 0.005972,0 0.009514,0.00375 0.003542,0.00368 0.003542,0.011111 v 0.020555 h -0.005417 v -0.019444 q 0,-0.00542 -0.002431,-0.00812 -0.002431,-0.00271 -0.006597,-0.00271 -0.004861,0 -0.007708,0.0034 -0.002847,0.00333 -0.002847,0.00896 v 0.017917 z m 0.0527083,0 q -0.002361,0 -0.003889,-0.00153 -0.001458,-0.00153 -0.001458,-0.00389 v -0.024028 h -0.0108333 v -0.005 h 0.0108333 v -0.014167 h 0.005417 v 0.014167 h 0.0133333 v 0.005 h -0.0133333 v 0.022361 q 0,0.00208 0.001875,0.00208 h 0.009792 v 0.005 z m 0.0360416,9.723e-4 q -0.004514,0 -0.008194,-0.00201 -0.003611,-0.00208 -0.005764,-0.00597 -0.002153,-0.00396 -0.002153,-0.00965 v -0.00111 q 0,-0.00562 0.002153,-0.00958 0.002153,-0.00396 0.005764,-0.00597 0.003681,-0.00208 0.008056,-0.00208 0.003542,0 0.006389,0.0016 0.002917,0.00153 0.004583,0.00479 h 8.3333e-4 v -0.00542 h 0.005417 v 0.027361 q 0,0.00208 0.001875,0.00208 h 0.001736 v 0.005 h -0.003681 q -0.002153,0 -0.00375,-0.00139 -0.001597,-0.00139 -0.001597,-0.00444 h -8.3333e-4 q -0.001667,0.0034 -0.004653,0.00514 -0.002917,0.00167 -0.006181,0.00167 z m 5.5556e-4,-0.00514 q 0.004861,0 0.007986,-0.00347 0.003125,-0.00347 0.003125,-0.00917 v -8.333e-4 q 0,-0.00368 -0.001458,-0.00653 -0.001458,-0.00285 -0.003958,-0.00444 -0.0025,-0.00167 -0.005694,-0.00167 -0.003194,0 -0.005694,0.0016 -0.0025,0.00153 -0.003958,0.00438 -0.001458,0.00278 -0.001458,0.00653 v 0.00111 q 0,0.00583 0.003125,0.00917 0.003125,0.00333 0.007986,0.00333 z m 0.0396527,0.00514 q -0.004792,0 -0.008819,-0.00201 -0.004028,-0.00208 -0.006528,-0.00604 -0.002431,-0.00396 -0.002431,-0.00958 v -8.334e-4 q 0,-0.00556 0.002431,-0.00958 0.0025,-0.00403 0.006528,-0.00618 0.004028,-0.00215 0.008819,-0.00215 0.004375,0 0.007778,0.00174 0.003472,0.00167 0.005625,0.00465 0.002222,0.00299 0.002847,0.00681 l -0.005417,0.00125 q -2.7778e-4,-0.00243 -0.001597,-0.00451 -0.001319,-0.00215 -0.003681,-0.00347 -0.002292,-0.00132 -0.005694,-0.00132 -0.003333,0 -0.006111,0.00167 -0.002708,0.0016 -0.004375,0.00451 -0.001597,0.00285 -0.001597,0.0066 v 8.334e-4 q 0,0.00389 0.001597,0.00674 0.001667,0.00278 0.004444,0.00431 0.002778,0.00146 0.006181,0.00146 0.003403,0 0.005694,-0.00132 0.002361,-0.00139 0.003611,-0.00347 0.001319,-0.00215 0.001667,-0.00451 l 0.005417,0.00125 q -6.9444e-4,0.00382 -0.002847,0.00681 -0.002153,0.00299 -0.005625,0.00472 -0.003403,0.00167 -0.007917,0.00167 z m 0.0368749,-9.723e-4 q -0.002361,0 -0.003889,-0.00153 -0.001458,-0.00153 -0.001458,-0.00389 v -0.024028 h -0.0108333 v -0.005 h 0.0108333 v -0.014167 h 0.005417 v 0.014167 h 0.0133333 v 0.005 h -0.0133333 v 0.022361 q 0,0.00208 0.001875,0.00208 h 0.009792 v 0.005 z m 0.031111,9.723e-4 q -0.003403,0 -0.006111,-0.00181 -0.002639,-0.00187 -0.004167,-0.00521 -0.001528,-0.0034 -0.001528,-0.00806 v -0.00125 q 0,-0.00465 0.001528,-0.00799 0.001597,-0.0034 0.004236,-0.00521 0.002639,-0.00188 0.005903,-0.00188 0.003194,0 0.004861,0.00125 0.001736,0.00118 0.002917,0.00347 h 8.3333e-4 v -0.00375 h 0.005417 v 0.022361 q 0,0.00208 0.001875,0.00208 h 0.001667 q 0.001875,0 0.001875,-0.00208 v -0.019167 q 0,-0.00451 -0.002153,-0.00681 -0.002083,-0.00236 -0.006597,-0.00236 h -0.0195833 v -0.005 h 0.0201389 q 0.006389,0 0.01,0.0034 0.003611,0.00333 0.003611,0.010208 v 0.021389 q 0,0.00236 -0.001528,0.00389 -0.001458,0.00153 -0.003819,0.00153 h -0.005556 q -0.002569,0 -0.00375,-0.00132 -0.001181,-0.00139 -0.001181,-0.00326 h -8.3333e-4 q -8.3334e-4,0.00257 -0.002847,0.0041 -0.001944,0.00146 -0.005208,0.00146 z m 0.001042,-0.00514 q 0.002847,0 0.004444,-0.00132 0.001597,-0.00132 0.002292,-0.00354 6.9444e-4,-0.00229 6.9444e-4,-0.00507 v -0.00125 q 0,-0.00264 -6.9444e-4,-0.00486 -6.9445e-4,-0.00229 -0.002292,-0.00368 -0.001597,-0.00139 -0.004444,-0.00139 -0.003472,0 -0.005486,0.00292 -0.001944,0.00285 -0.001944,0.00701 v 0.00125 q 0,0.00438 0.001944,0.00715 0.002014,0.00278 0.005486,0.00278 z m 0.0438194,-0.035694 q -0.001944,0 -0.003403,-0.00146 -0.001458,-0.00146 -0.001458,-0.0034 0,-0.00201 0.001458,-0.0034 0.001458,-0.00146 0.003403,-0.00146 0.002014,0 0.003403,0.00146 0.001458,0.00139 0.001458,0.0034 0,0.00194 -0.001458,0.0034 -0.001389,0.00146 -0.003403,0.00146 z M 0.887475,1.9545221 v -0.005 H 0.8995583 V 1.9250777 H 0.888725 v -0.005 h 0.01625 v 0.029444 h 0.01125 v 0.005 z m 0.0526388,9.723e-4 q -0.005347,0 -0.00875,-0.00181 -0.003403,-0.00187 -0.005069,-0.00472 -0.001667,-0.00292 -0.001875,-0.00597 l 0.005139,-0.00125 q 3.4722e-4,0.00396 0.003056,0.00639 0.002778,0.00236 0.007222,0.00236 0.003819,0 0.006111,-0.00146 0.002361,-0.00153 0.002361,-0.00424 0,-0.00292 -0.002292,-0.00417 -0.002292,-0.00125 -0.007431,-0.0016 -0.005903,-4.166e-4 -0.009167,-0.00278 -0.003194,-0.00243 -0.003194,-0.00687 v -4.167e-4 q 0,-0.00326 0.001806,-0.00542 0.001806,-0.00222 0.004653,-0.00333 0.002847,-0.00111 0.006042,-0.00111 0.004583,0 0.007569,0.0016 0.003056,0.00153 0.004653,0.00403 0.001597,0.00243 0.001944,0.00507 l -0.005139,0.00125 q -2.7778e-4,-0.00333 -0.002639,-0.00521 -0.002361,-0.00188 -0.006111,-0.00188 -0.002917,0 -0.005208,0.00125 -0.002292,0.00125 -0.002292,0.00375 0,0.0025 0.002083,0.00382 0.002153,0.00132 0.007778,0.00174 0.005972,4.862e-4 0.009167,0.00292 0.003194,0.00236 0.003194,0.00694 v 4.166e-4 q 0,0.005 -0.003819,0.00785 -0.00375,0.00285 -0.009792,0.00285 z m 0.0352777,0 q -0.004514,0 -0.008194,-0.00201 -0.003611,-0.00208 -0.005764,-0.00597 -0.002153,-0.00396 -0.002153,-0.00965 v -0.00111 q 0,-0.00562 0.002153,-0.00958 0.002153,-0.00396 0.005764,-0.00597 0.003681,-0.00208 0.008056,-0.00208 0.003542,0 0.006389,0.0016 0.002917,0.00153 0.004583,0.00479 h 8.3333e-4 v -0.00542 h 0.005417 v 0.027361 q 0,0.00208 0.001875,0.00208 h 0.001736 v 0.005 h -0.003681 q -0.002153,0 -0.00375,-0.00139 -0.001597,-0.00139 -0.001597,-0.00444 H 0.9862255 q -0.001667,0.0034 -0.004653,0.00514 -0.002917,0.00167 -0.006181,0.00167 z m 5.5555e-4,-0.00514 q 0.004861,0 0.007986,-0.00347 0.003125,-0.00347 0.003125,-0.00917 v -8.333e-4 q 0,-0.00368 -0.001458,-0.00653 -0.001458,-0.00285 -0.003958,-0.00444 -0.0025,-0.00167 -0.005694,-0.00167 -0.003194,0 -0.005694,0.0016 -0.0025,0.00153 -0.003958,0.00438 -0.001458,0.00278 -0.001458,0.00653 v 0.00111 q 0,0.00583 0.003125,0.00917 0.003125,0.00333 0.007986,0.00333 z m 0.0371526,0.00514 q -0.00451,0 -0.00819,-0.00201 -0.00361,-0.00208 -0.005764,-0.00597 -0.002153,-0.00396 -0.002153,-0.00965 v -0.00111 q 0,-0.00562 0.002153,-0.00958 0.002153,-0.00396 0.005764,-0.00597 0.00368,-0.00208 0.00806,-0.00208 0.00354,0 0.00639,0.0016 0.00292,0.00153 0.00458,0.00479 h 8.334e-4 v -0.00542 h 0.00542 v 0.027361 q 0,0.00208 0.00188,0.00208 h 0.00174 v 0.005 h -0.00368 q -0.00215,0 -0.00375,-0.00139 -0.0016,-0.00139 -0.0016,-0.00444 h -8.334e-4 q -0.00167,0.0034 -0.00465,0.00514 -0.00292,0.00167 -0.00618,0.00167 z m 5.556e-4,-0.00514 q 0.00486,0 0.00799,-0.00347 0.00312,-0.00347 0.00312,-0.00917 v -8.333e-4 q 0,-0.00368 -0.00146,-0.00653 -0.00146,-0.00285 -0.00396,-0.00444 -0.0025,-0.00167 -0.00569,-0.00167 -0.00319,0 -0.00569,0.0016 -0.0025,0.00153 -0.00396,0.00438 -0.00146,0.00278 -0.00146,0.00653 v 0.00111 q 0,0.00583 0.00313,0.00917 0.00312,0.00333 0.00799,0.00333 z m 0.039653,0.00514 q -0.00479,0 -0.00882,-0.00201 -0.00403,-0.00208 -0.00653,-0.00604 -0.00243,-0.00396 -0.00243,-0.00958 V 1.937031 q 0,-0.00556 0.00243,-0.00958 0.0025,-0.00403 0.00653,-0.00618 0.00403,-0.00215 0.00882,-0.00215 0.00438,0 0.00778,0.00174 0.00347,0.00167 0.00562,0.00465 0.00222,0.00299 0.00285,0.00681 l -0.00542,0.00125 q -2.778e-4,-0.00243 -0.0016,-0.00451 -0.00132,-0.00215 -0.00368,-0.00347 -0.00229,-0.00132 -0.00569,-0.00132 -0.00333,0 -0.00611,0.00167 -0.00271,0.0016 -0.00438,0.00451 -0.0016,0.00285 -0.0016,0.0066 v 8.334e-4 q 0,0.00389 0.0016,0.00674 0.00167,0.00278 0.00444,0.00431 0.00278,0.00146 0.00618,0.00146 0.0034,0 0.00569,-0.00132 0.00236,-0.00139 0.00361,-0.00347 0.00132,-0.00215 0.00167,-0.00451 l 0.00542,0.00125 q -6.944e-4,0.00382 -0.00285,0.00681 -0.00215,0.00299 -0.00562,0.00472 -0.0034,0.00167 -0.00792,0.00167 z m 0.038681,0 q -0.00333,0 -0.00667,-0.00153 -0.00333,-0.0016 -0.00514,-0.00472 H 1.079346 v 0.00528 h -0.00542 v -0.048611 h 0.00542 v 0.019583 h 8.333e-4 q 0.00181,-0.00313 0.005,-0.00472 0.00319,-0.00167 0.00694,-0.00167 0.00424,0 0.00785,0.00208 0.00361,0.00201 0.00576,0.00597 0.00222,0.00389 0.00222,0.00944 v 0.00139 q 0,0.00562 -0.00215,0.00951 -0.00215,0.00389 -0.00583,0.00597 -0.00361,0.00201 -0.00799,0.00201 z m -0.00111,-0.00514 q 0.00493,0 0.00819,-0.00333 0.00333,-0.00333 0.00333,-0.00903 v -0.00139 q 0,-0.00368 -0.00153,-0.00646 -0.00153,-0.00278 -0.00417,-0.00431 -0.00257,-0.0016 -0.00583,-0.0016 -0.00319,0 -0.00583,0.00167 -0.00257,0.0016 -0.00417,0.00444 -0.00153,0.00285 -0.00153,0.00653 v 8.333e-4 q 0,0.00382 0.00153,0.00667 0.00153,0.00285 0.00417,0.00444 0.00264,0.00153 0.00583,0.00153 z m 0.037361,0.00514 q -0.00493,0 -0.00875,-0.00222 -0.00375,-0.00229 -0.0059,-0.00625 -0.00215,-0.00403 -0.00215,-0.00931 v -0.00167 q 0,-0.00486 0.00222,-0.00868 0.00222,-0.00382 0.00604,-0.00604 0.00389,-0.00222 0.00868,-0.00222 0.00424,0 0.00729,0.00153 0.00313,0.00153 0.00507,0.00389 0.00201,0.00236 0.00292,0.00507 9.723e-4,0.00264 9.723e-4,0.00493 v 0.00444 h -0.027778 q 2.083e-4,0.00507 0.00319,0.00826 0.00306,0.00312 0.00833,0.00312 0.00493,0 0.00736,-0.00208 0.00243,-0.00208 0.00333,-0.005 l 0.00514,0.00139 q -0.00146,0.00479 -0.00542,0.00785 -0.00389,0.00299 -0.010556,0.00299 z m -0.01125,-0.021528 h 0.022222 q -1.389e-4,-0.00299 -0.00174,-0.00514 -0.00153,-0.00222 -0.00396,-0.0034 -0.00243,-0.00118 -0.00514,-0.00118 -0.00458,0 -0.00771,0.00278 -0.00312,0.00278 -0.00368,0.00694 z m 0.033611,0.020555 v -0.005 h 0.0125 v -0.03861 h -0.012083 v -0.005 h 0.0175 v 0.043611 h 0.0125 v 0.005 z m 0.037708,0 v -0.005 h 0.0125 v -0.03861 h -0.012083 v -0.005 h 0.0175 v 0.043611 h 0.0125 v 0.005 z m 0.052917,9.723e-4 q -0.00194,0 -0.0034,-0.00146 -0.00146,-0.00146 -0.00146,-0.0034 0,-0.00201 0.00146,-0.0034 0.00146,-0.00146 0.0034,-0.00146 0.00201,0 0.0034,0.00146 0.00146,0.00139 0.00146,0.0034 0,0.00194 -0.00146,0.0034 -0.00139,0.00146 -0.0034,0.00146 z m 0.038056,-0.040833 q -0.00194,0 -0.0034,-0.00146 -0.00146,-0.00146 -0.00146,-0.0034 0,-0.00201 0.00146,-0.0034 0.00146,-0.00146 0.0034,-0.00146 0.00201,0 0.0034,0.00146 0.00146,0.00139 0.00146,0.0034 0,0.00194 -0.00146,0.0034 -0.00139,0.00146 -0.0034,0.00146 z m -0.014722,0.039861 v -0.005 h 0.012083 v -0.024444 h -0.010833 v -0.005 h 0.01625 v 0.029444 h 0.01125 v 0.005 z m 0.052083,9.723e-4 q -0.00458,0 -0.00854,-0.00208 -0.00389,-0.00208 -0.00632,-0.00604 -0.00243,-0.00396 -0.00243,-0.00965 v -8.333e-4 q 0,-0.00562 0.00243,-0.00958 0.00243,-0.00403 0.00632,-0.00611 0.00396,-0.00208 0.00854,-0.00208 0.00458,0 0.00847,0.00208 0.00396,0.00208 0.00639,0.00611 0.00243,0.00396 0.00243,0.00958 v 8.333e-4 q 0,0.00569 -0.00243,0.00965 -0.00243,0.00396 -0.00639,0.00604 -0.00389,0.00208 -0.00847,0.00208 z m 0,-0.00514 q 0.00333,0 0.00597,-0.00153 0.00264,-0.00153 0.00417,-0.00438 0.0016,-0.00285 0.0016,-0.00674 v -8.333e-4 q 0,-0.00375 -0.0016,-0.0066 -0.00153,-0.00285 -0.00424,-0.00444 -0.00264,-0.0016 -0.0059,-0.0016 -0.00326,0 -0.00597,0.0016 -0.00264,0.0016 -0.00424,0.00444 -0.00153,0.00285 -0.00153,0.0066 v 8.333e-4 q 0,0.00389 0.00153,0.00674 0.0016,0.00285 0.00424,0.00438 0.00271,0.00153 0.00597,0.00153 z"
         id="path17" />
      <path
         d="M 0.7814335,2.031536 V 2.019522 H 0.7694196 v -0.005 H 0.7814335 V 2.002508 h 0.005 v 0.012014 h 0.0120139 v 0.005 H 0.7864335 v 0.012014 z m 0.0238888,0.00979 v -0.00542 h 0.01375 V 1.995286 H 0.818239 L 0.810253,2.01355 H 0.804489 v -4.167e-4 l 0.009097,-0.020417 h 0.0113194 v 0.043194 h 0.01375 v 0.00542 z m 0.0963888,0 v -0.00917 h -0.0225 V 2.024096 L 0.896225,1.992707 h 0.0113194 v 0.034028 h 0.0075 v 0.00542 h -0.0075 v 0.00917 z m -0.0175,-0.014583 h 0.0175 V 1.9952166 H 0.90087775 L 0.8842111,2.025911 Z m 0.0376388,0.014583 v -0.0025 q 0,-0.0025 0.001042,-0.00458 0.001042,-0.00215 0.003194,-0.00542 L 0.9460164,1.998965 v -8.334e-4 h -0.0275 v -0.00542 h 0.0325 v 0.00847 l -0.0204861,0.030972 q -0.001458,0.00215 -0.002222,0.00382 -7.6389e-4,0.0016 -7.6389e-4,0.00326 v 0.00208 z m 0.0506249,9.723e-4 q -0.007986,0 -0.0125694,-0.00507 -0.004514,-0.00514 -0.004514,-0.014792 v -0.010833 q 0,-0.00937 0.004514,-0.014583 0.004583,-0.00528 0.0125694,-0.00528 0.008056,0 0.0125694,0.00528 0.004514,0.00521 0.004514,0.014583 v 0.010833 q 0,0.00965 -0.004514,0.014792 -0.004514,0.00507 -0.0125694,0.00507 z m 0,-0.00528 q 0.005625,0 0.008403,-0.00396 0.002847,-0.00396 0.002847,-0.011042 v -0.01 q 0,-0.00667 -0.002847,-0.010833 -0.002778,-0.00417 -0.008403,-0.00417 -0.005625,0 -0.008472,0.00417 -0.002778,0.00417 -0.002778,0.010833 v 0.01 q 0,0.00708 0.002778,0.011042 0.002847,0.00396 0.008472,0.00396 z m 0,-0.015556 q -0.001736,0 -0.003125,-0.00132 -0.001319,-0.00139 -0.001319,-0.00312 0,-0.00181 0.001319,-0.00313 0.001389,-0.00132 0.003125,-0.00132 0.001806,0 0.003125,0.00132 0.001319,0.00132 0.001319,0.00313 0,0.00174 -0.001319,0.00312 -0.001319,0.00132 -0.003125,0.00132 z m 0.0761805,0.020833 q -0.00549,0 -0.00944,-0.00215 -0.00396,-0.00222 -0.00611,-0.00583 -0.00208,-0.00368 -0.00208,-0.00813 v -0.00375 h 0.00583 v 0.00333 q 0,0.00521 0.00333,0.00819 0.00333,0.00292 0.00833,0.00292 0.00306,0 0.00549,-0.00132 0.0025,-0.00139 0.00389,-0.00361 0.00146,-0.00229 0.00146,-0.00507 v -4.167e-4 q 0,-0.00438 -0.00278,-0.00681 -0.00278,-0.0025 -0.00694,-0.0025 h -0.00653 v -0.00806 l 0.015833,-0.010139 v -8.334e-4 h -0.0275 v -0.00542 h 0.0325 v 0.00889 l -0.015833,0.010139 v 8.334e-4 h 0.00278 q 0.00368,0 0.00694,0.0016 0.00326,0.0016 0.00528,0.00465 0.00208,0.00299 0.00208,0.00743 v 0.00125 q 0,0.00417 -0.00215,0.00757 -0.00215,0.00333 -0.0059,0.00528 -0.00375,0.00194 -0.00847,0.00194 z m 0.036944,0 q -0.00799,0 -0.012569,-0.00507 -0.00451,-0.00514 -0.00451,-0.014792 v -0.010833 q 0,-0.00937 0.00451,-0.014583 0.00458,-0.00528 0.012569,-0.00528 0.00806,0 0.012569,0.00528 0.00451,0.00521 0.00451,0.014583 v 0.010833 q 0,0.00965 -0.00451,0.014792 -0.00451,0.00507 -0.012569,0.00507 z m 0,-0.00528 q 0.00562,0 0.0084,-0.00396 0.00285,-0.00396 0.00285,-0.011042 v -0.01 q 0,-0.00667 -0.00285,-0.010833 -0.00278,-0.00417 -0.0084,-0.00417 -0.00562,0 -0.00847,0.00417 -0.00278,0.00417 -0.00278,0.010833 v 0.01 q 0,0.00708 0.00278,0.011042 0.00285,0.00396 0.00847,0.00396 z m 0,-0.015556 q -0.00174,0 -0.00313,-0.00132 -0.00132,-0.00139 -0.00132,-0.00312 0,-0.00181 0.00132,-0.00313 0.00139,-0.00132 0.00313,-0.00132 0.00181,0 0.00313,0.00132 0.00132,0.00132 0.00132,0.00313 0,0.00174 -0.00132,0.00312 -0.00132,0.00132 -0.00313,0.00132 z m 0.037708,0.020833 q -0.00799,0 -0.012569,-0.00507 -0.00451,-0.00514 -0.00451,-0.014792 v -0.010833 q 0,-0.00937 0.00451,-0.014583 0.00458,-0.00528 0.012569,-0.00528 0.00806,0 0.01257,0.00528 0.00451,0.00521 0.00451,0.014583 v 0.010833 q 0,0.00965 -0.00451,0.014792 -0.00451,0.00507 -0.01257,0.00507 z m 0,-0.00528 q 0.00562,0 0.0084,-0.00396 0.00285,-0.00396 0.00285,-0.011042 v -0.01 q 0,-0.00667 -0.00285,-0.010833 -0.00278,-0.00417 -0.0084,-0.00417 -0.00562,0 -0.00847,0.00417 -0.00278,0.00417 -0.00278,0.010833 v 0.01 q 0,0.00708 0.00278,0.011042 0.00285,0.00396 0.00847,0.00396 z m 0,-0.015556 q -0.00174,0 -0.00312,-0.00132 -0.00132,-0.00139 -0.00132,-0.00312 0,-0.00181 0.00132,-0.00313 0.00139,-0.00132 0.00312,-0.00132 0.00181,0 0.00313,0.00132 0.00132,0.00132 0.00132,0.00313 0,0.00174 -0.00132,0.00312 -0.00132,0.00132 -0.00313,0.00132 z m 0.027292,0.00431 v -0.005 h 0.020833 v 0.005 z m 0.048889,0.016528 q -0.00549,0 -0.00944,-0.00215 -0.00396,-0.00222 -0.00611,-0.00583 -0.00208,-0.00368 -0.00208,-0.00813 v -0.00375 h 0.00583 v 0.00333 q 0,0.00521 0.00333,0.00819 0.00333,0.00292 0.00833,0.00292 0.00306,0 0.00549,-0.00132 0.0025,-0.00139 0.00389,-0.00361 0.00146,-0.00229 0.00146,-0.00507 v -4.167e-4 q 0,-0.00438 -0.00278,-0.00681 -0.00278,-0.0025 -0.00694,-0.0025 h -0.00653 v -0.00806 l 0.015833,-0.010139 v -8.334e-4 h -0.0275 v -0.00542 h 0.0325 v 0.00889 l -0.015833,0.010139 v 8.334e-4 h 0.00278 q 0.00368,0 0.00694,0.0016 0.00326,0.0016 0.00528,0.00465 0.00208,0.00299 0.00208,0.00743 v 0.00125 q 0,0.00417 -0.00215,0.00757 -0.00215,0.00333 -0.0059,0.00528 -0.00375,0.00194 -0.00847,0.00194 z m 0.036944,0 q -0.00479,0 -0.00861,-0.00201 -0.00382,-0.00208 -0.00604,-0.00569 -0.00222,-0.00361 -0.00222,-0.00833 v -0.017708 q 0,-0.00514 0.00229,-0.00889 0.00229,-0.00382 0.00604,-0.00583 0.00382,-0.00208 0.0084,-0.00208 0.00465,0 0.00826,0.00188 0.00368,0.00181 0.00576,0.00521 0.00215,0.0034 0.00215,0.00806 h -0.00583 q 0,-0.00451 -0.00278,-0.00722 -0.00278,-0.00278 -0.00771,-0.00278 -0.00465,0 -0.00771,0.00326 -0.00306,0.00319 -0.00306,0.0084 v 0.00722 h 8.333e-4 q 0.00167,-0.00306 0.00472,-0.00479 0.00313,-0.00174 0.00694,-0.00174 0.00451,0 0.00799,0.00194 0.00347,0.00187 0.00542,0.00549 0.00201,0.00354 0.00201,0.00854 v 8.334e-4 q 0,0.00479 -0.00222,0.00847 -0.00222,0.00361 -0.00604,0.00569 -0.00382,0.00208 -0.00861,0.00208 z m 0,-0.00514 q 0.00507,0 0.00806,-0.00306 0.00299,-0.00313 0.00299,-0.00792 v -8.334e-4 q 0,-0.00326 -0.00146,-0.00569 -0.00139,-0.0025 -0.00389,-0.00389 -0.0025,-0.00139 -0.00569,-0.00139 -0.00313,0 -0.00562,0.00146 -0.0025,0.00139 -0.00396,0.00382 -0.00146,0.00243 -0.00146,0.00542 v 0.00132 q 0,0.00465 0.00299,0.00771 0.00299,0.00306 0.00806,0.00306 z m 0.037083,0.00514 q -0.00486,0 -0.00854,-0.00174 -0.00368,-0.00174 -0.00569,-0.00472 -0.00201,-0.00299 -0.00201,-0.00674 V 2.028261 q 0,-0.00333 0.00132,-0.00569 0.00132,-0.00243 0.00333,-0.00389 0.00208,-0.00153 0.00438,-0.00215 v -8.333e-4 q -0.00312,-0.00104 -0.00549,-0.00375 -0.00229,-0.00271 -0.00229,-0.00674 v -8.333e-4 q 0,-0.00368 0.00194,-0.00653 0.00194,-0.00285 0.00542,-0.00444 0.00347,-0.00167 0.00806,-0.00167 h 4.167e-4 q 0.00458,0 0.00806,0.00167 0.00347,0.0016 0.00542,0.00444 0.00194,0.00285 0.00194,0.00653 v 8.333e-4 q 0,0.00403 -0.00236,0.00674 -0.00229,0.00271 -0.00542,0.00375 v 8.333e-4 q 0.00229,6.25e-4 0.00431,0.00215 0.00208,0.00146 0.0034,0.00389 0.00132,0.00236 0.00132,0.00569 v 8.333e-4 q 0,0.00375 -0.00201,0.00674 -0.00201,0.00299 -0.00569,0.00472 -0.00361,0.00174 -0.00854,0.00174 z m 6.25e-4,-0.028889 q 0.00431,0 0.00701,-0.00229 0.00278,-0.00236 0.00278,-0.00576 v -4.166e-4 q 0,-0.00354 -0.00271,-0.00569 -0.00264,-0.00222 -0.00708,-0.00222 -0.00444,0 -0.00715,0.00222 -0.00264,0.00215 -0.00264,0.00569 v 4.166e-4 q 0,0.0034 0.00271,0.00576 0.00278,0.00229 0.00708,0.00229 z m -4.166e-4,0.023611 h 8.333e-4 q 0.00472,0 0.00764,-0.00243 0.00299,-0.0025 0.00299,-0.00632 v -4.167e-4 q 0,-0.00431 -0.00306,-0.00667 -0.00299,-0.00236 -0.00778,-0.00236 h -4.167e-4 q -0.00479,0 -0.00785,0.00236 -0.00299,0.00236 -0.00299,0.00667 v 4.167e-4 q 0,0.00382 0.00299,0.00632 0.00299,0.00243 0.00764,0.00243 z m 0.0375,0.00528 q -0.00486,0 -0.00854,-0.00174 -0.00368,-0.00174 -0.00569,-0.00472 -0.00201,-0.00299 -0.00201,-0.00674 V 2.028263 q 0,-0.00333 0.00132,-0.00569 0.00132,-0.00243 0.00333,-0.00389 0.00208,-0.00153 0.00438,-0.00215 v -8.333e-4 q -0.00313,-0.00104 -0.00549,-0.00375 -0.00229,-0.00271 -0.00229,-0.00674 v -8.333e-4 q 0,-0.00368 0.00194,-0.00653 0.00194,-0.00285 0.00542,-0.00444 0.00347,-0.00167 0.00806,-0.00167 h 4.167e-4 q 0.00458,0 0.00806,0.00167 0.00347,0.0016 0.00542,0.00444 0.00194,0.00285 0.00194,0.00653 v 8.333e-4 q 0,0.00403 -0.00236,0.00674 -0.00229,0.00271 -0.00542,0.00375 v 8.333e-4 q 0.00229,6.25e-4 0.00431,0.00215 0.00208,0.00146 0.0034,0.00389 0.00132,0.00236 0.00132,0.00569 v 8.333e-4 q 0,0.00375 -0.00201,0.00674 -0.00201,0.00299 -0.00569,0.00472 -0.00361,0.00174 -0.00854,0.00174 z m 6.25e-4,-0.028889 q 0.00431,0 0.00701,-0.00229 0.00278,-0.00236 0.00278,-0.00576 v -4.166e-4 q 0,-0.00354 -0.00271,-0.00569 -0.00264,-0.00222 -0.00708,-0.00222 -0.00444,0 -0.00715,0.00222 -0.00264,0.00215 -0.00264,0.00569 v 4.166e-4 q 0,0.0034 0.00271,0.00576 0.00278,0.00229 0.00708,0.00229 z m -4.167e-4,0.023611 h 8.333e-4 q 0.00472,0 0.00764,-0.00243 0.00299,-0.0025 0.00299,-0.00632 v -4.167e-4 q 0,-0.00431 -0.00306,-0.00667 -0.00299,-0.00236 -0.00778,-0.00236 h -4.167e-4 q -0.00479,0 -0.00785,0.00236 -0.00299,0.00236 -0.00299,0.00667 v 4.167e-4 q 0,0.00382 0.00299,0.00632 0.00299,0.00243 0.00764,0.00243 z"
         id="path18" />
    </g>
  </g>
</svg>
